<svg width="1920" height="1048" viewBox="0 0 1920 1048" fill="none" xmlns="http://www.w3.org/2000/svg">
<path d="M1761.97 818.811C1759.03 820.617 1758.25 824.389 1755.06 826.125C1752.86 827.327 1749.45 827.173 1748.69 827.74C1747.65 828.516 1748.1 831.962 1746.35 833.808C1739.28 841.278 1730.98 839.189 1725.12 841.831C1721.64 843.398 1712.03 854.611 1710.34 855.478C1708.37 856.491 1705.58 855.998 1703.3 857.06C1694.69 861.074 1681.09 880.739 1672.25 866.699C1685.08 858.386 1699.01 851.516 1712 843.477C1718.79 839.273 1714.64 838.85 1724.26 837.03C1727.66 836.388 1727.42 832.016 1730.63 838.683C1734.83 834.432 1738.91 832.911 1732.5 828.137C1734 825.641 1737.92 826.256 1739.55 824.72C1744.74 819.861 1742.89 801.55 1744.78 800.161C1753.13 801.145 1748.17 811.853 1748.64 812.428C1748.94 812.806 1750.82 812.838 1751.45 813.851C1752.7 815.88 1751.7 820.27 1755.05 819.927C1756.87 819.739 1759.41 816.174 1761.97 816.323V818.811Z" fill="#77BA80"/>
<path d="M1591.16 598.702C1591.45 598.986 1590.79 604.502 1591.39 606.547C1591.52 606.981 1596.44 613.61 1596.88 613.706C1603.52 615.183 1604.21 603.39 1612.54 603.727C1614.43 603.803 1625.27 607.436 1627.64 608.416C1630.81 609.729 1646.26 617.966 1648.02 619.78C1650.14 621.966 1649.61 625.411 1651.37 626.685C1654.47 628.926 1661.75 627.243 1661.21 636.008L1656.29 636.627C1659.16 646.034 1669.73 648.957 1672.25 657.147C1659.59 658.349 1657.11 650.816 1650.19 644.049C1641.53 635.577 1642.4 644.825 1636.08 648.512C1627.67 653.411 1622.27 644.672 1616.04 643.67C1613.02 643.185 1608.68 646.394 1608.96 642.231C1614.83 639.586 1613.34 629.958 1609.24 626.43C1607.97 625.341 1596.39 621.387 1593.63 620.449C1588.63 618.75 1585.28 621.386 1582.87 613.911C1582.39 612.447 1583.83 610.819 1582.69 609.219C1580.44 606.066 1574.74 607.426 1572.77 601.755C1571.8 598.987 1579.61 599.079 1580.99 597.727C1582.79 598.52 1590.79 598.343 1591.16 598.702Z" fill="#77BA80"/>
<path d="M1522.05 484.607C1522.44 485.107 1524.68 493.944 1524.65 494.927C1524.58 497.062 1522.72 498.885 1522.38 501.178C1520.45 514.119 1530.94 508.336 1535.56 513.223C1537.4 515.168 1535.52 518.125 1536.02 518.866C1536.66 519.807 1541.49 520.985 1543.09 523.611C1545.24 527.14 1543.71 530.368 1544.66 533.218C1545.44 535.565 1549.74 535.927 1550.45 538.648C1551.03 540.854 1549.43 543.16 1549.67 545.533C1550.12 550.014 1554.82 558.502 1546.92 555.177L1546.9 563.883C1545.67 565.292 1540.3 559.324 1539.69 558.143C1537.41 553.75 1540.18 549.331 1532.91 551.63C1530.59 552.364 1532.04 556.244 1528.48 555.178C1528.42 544.162 1536.61 544.724 1544.37 541.386C1541.77 536.166 1542.24 523.661 1535.87 532.181C1540.38 535.1 1541.17 540.366 1535.04 541.175C1529.18 541.95 1531.6 536.349 1530.77 535.406C1530.39 534.974 1528.38 535.563 1527.6 535.032C1525.82 533.818 1525.96 527.641 1526.03 525.346C1529.94 526.065 1531.94 528.459 1536.46 527.836C1540.37 527.296 1534.42 524.37 1534.13 524.031C1530.84 520.13 1528.5 514.905 1522.34 515.397L1520.5 521.602C1515.99 518.985 1517.49 513.623 1516.72 511.607C1516.01 509.77 1512.23 508.217 1511.48 504.529C1510.48 499.586 1516.56 490.616 1515.12 484.486C1516.91 483.38 1520.68 482.885 1522.05 484.607Z" fill="#77BA80"/>
<path d="M1635.48 679.453C1635.99 679.962 1639.22 678.832 1640.95 680.754C1643.4 683.493 1643.63 699.91 1646.1 705.338C1647.11 707.561 1653.32 712.297 1654.94 715.191C1656.7 718.349 1655.2 722.274 1656.23 724.674C1656.88 726.161 1659.38 725.406 1660.57 726.769C1661.71 728.08 1662.5 733.464 1663.8 735.968C1665.42 739.078 1669.49 742.761 1669.47 745.827C1669.39 754.839 1658.61 781.242 1651.97 787.716C1649.93 789.709 1646.77 790.598 1644.74 792.826C1641.14 796.766 1626.73 817.102 1624.32 818.179C1621.68 819.361 1618.53 818.453 1615.65 819.354C1609.51 821.276 1603.19 835.177 1599.74 821.3C1593.01 828.204 1578.78 825.177 1576.94 815.046C1576.51 812.677 1578.81 805.105 1575.79 805.157C1575.1 805.169 1568.15 816.625 1566.58 809.466C1565.78 805.835 1578.8 805.35 1576.39 798.915L1569.04 802.029L1576.39 792.698C1572.04 793.279 1567.32 802.541 1563.52 801.4C1559.96 800.327 1564.3 794.212 1559.84 790.178C1547.85 779.328 1532.68 783.716 1518.7 788.4C1513.29 790.214 1507.49 795.572 1505.49 796.177C1500.85 797.587 1493.91 795.418 1488.84 796.729C1485.59 797.569 1480.06 802.818 1475.95 803.636C1470.93 804.634 1461.86 802.523 1463.27 796.002C1463.44 795.177 1466.71 794.14 1468.11 791.924C1472.03 785.719 1472.15 764.621 1470.63 757.349C1470.11 754.858 1467.1 750.185 1467.13 749.769C1467.24 748.556 1471.34 747.746 1471.83 745.885C1472.27 744.268 1470.55 742.14 1470.94 740.126C1471.22 738.692 1473.47 736.937 1474.16 734.618C1474.99 731.775 1473.38 725.761 1477.48 724.308C1478.7 723.878 1477.49 727.251 1478.7 726.787C1490.03 713.217 1511.21 718.389 1520.96 702.388C1522.56 699.762 1522.7 693.247 1526.65 691.984C1530.17 690.857 1526.88 695.604 1529.69 695.695C1528.56 690.601 1532.86 692.099 1535.22 689.457C1536.39 688.161 1536.74 685.018 1537.25 684.697C1538.69 683.799 1542.53 685.101 1543.18 684.462C1543.51 684.139 1542.8 677.948 1546.87 676.455C1551.74 674.668 1554.44 682.537 1556.34 683.148C1557.34 683.471 1563.85 682.285 1564.12 681.999C1564.25 681.866 1562.9 680.199 1563.51 678.395C1564.22 676.273 1569.53 668.67 1571.53 667.768C1576.99 665.307 1579.76 669.449 1577.64 659.647C1582.89 659.252 1585.49 666.169 1590.82 666.867C1594.22 667.311 1599.63 662.7 1601.66 665.791C1604.9 670.73 1599.65 670.956 1598.49 672.619C1597.35 674.265 1593.42 681.14 1593.74 682.392C1597.73 685.964 1611.07 702.96 1616.81 699.282C1617.29 698.974 1621.7 690.138 1622.11 689.1C1625.91 679.36 1624.34 667.946 1629.26 658.4C1634.61 659.931 1634.56 678.543 1635.48 679.453Z" fill="#77BA80"/>
<path d="M1605.89 836.227C1603.41 843.293 1598.27 852.186 1590.25 853.4C1579.82 854.98 1588.61 838.902 1590.54 833.757C1594.75 840.273 1599.83 835.867 1605.89 836.227Z" fill="#77BA80"/>
<path d="M1512.47 591.203C1512.28 591.488 1508.02 591.833 1506.94 593.708C1505.63 595.979 1506.98 599.57 1505.74 602.427C1504.68 604.847 1500.49 605.744 1500.19 607.042C1498.25 615.34 1503.73 622.764 1487.59 619.552C1480.09 618.059 1481.48 617.366 1472.5 617.187C1464.46 617.028 1468.12 609.215 1466.78 604.56C1465.98 601.789 1462.38 600.95 1462.03 595.575C1461.95 594.224 1462.98 585.4 1463.35 585.023C1464.21 584.145 1469.56 587.506 1472 585.736C1472.97 585.025 1473.93 580.529 1476.8 578.127C1482.08 573.704 1491.23 568.111 1496.16 563.515C1498.18 561.63 1500.73 555.621 1501.46 552.701C1503 551.571 1514.54 563.577 1514.61 564.491C1514.93 568.393 1505.3 573.731 1508.11 582.599C1508.86 584.986 1514.16 588.731 1512.47 591.203Z" fill="#77BA80"/>
<path d="M1154.87 667.105C1157.64 673.567 1159.57 680.295 1157.35 687.335C1156.89 688.786 1154.46 688.522 1153.87 690.276C1149 704.626 1146.76 723.032 1141.41 737.405C1136.05 751.835 1119.76 751.538 1118.11 738.524C1116.97 729.516 1120.15 726.833 1123.19 720.205C1128.23 709.226 1121.49 704.815 1123.18 697.899C1125.38 688.899 1132.57 689.897 1138.31 685.763C1143.25 682.201 1147.05 673.99 1151.42 669.19C1152.51 667.996 1152.52 666.519 1154.87 667.105Z" fill="#77BA80"/>
<path d="M1417.07 580.869C1420.65 584.331 1434.05 590.875 1435.78 594.981C1436.4 596.451 1433.56 597.741 1433.85 599.267C1433.94 599.746 1439.77 603.775 1441.24 605.534C1444.47 609.385 1442.08 612.617 1449.82 611.149C1449.97 614.126 1447.04 615.313 1446.39 618.235C1445.47 622.364 1447.27 631.59 1439.71 630.847C1433.84 630.272 1422.34 617.614 1420.27 611.829C1415.14 597.495 1415.08 590.858 1403.06 580.77C1399.92 578.129 1399.57 574.712 1397.06 571.896C1394.45 568.977 1391.12 568.293 1388.41 565.755C1389.59 564.672 1390.51 562.686 1392.46 562.851C1394.01 562.982 1410.12 571.673 1411.73 573.218C1413.66 575.076 1415.15 579.013 1417.07 580.869Z" fill="#77BA80"/>
<path d="M1486.69 637.23C1486.56 637.467 1481.28 637.931 1484.22 640.383C1491.42 644.267 1496.64 641.989 1503.27 642.126C1509.35 642.251 1515 645.265 1521.76 644.801C1529.12 644.298 1529.3 644.306 1536.43 644.519C1540.26 644.633 1545.16 642.038 1549.95 642.182C1559.13 642.459 1546.25 647.877 1544.53 649.15C1540.74 651.962 1537.31 655.705 1533.4 658.397C1532.48 651.642 1538.82 651.278 1541.99 647.218C1537.33 646.794 1532.19 649.671 1527.8 649.73C1522.66 649.799 1514.2 649.965 1509.45 649.778C1505.52 649.623 1503.63 646.604 1502.06 646.45C1499.53 646.2 1494.68 649.923 1491.07 649.666C1487.91 649.441 1479.08 645.904 1474.71 645.028C1469.89 644.061 1464.47 644.831 1459.37 643.142C1452.97 641.021 1450.1 634.086 1442.46 636.007C1448.7 622.104 1455.74 635.089 1460.31 635.992C1468.75 637.661 1468.84 631.177 1470.09 631.062C1470.62 631.013 1473.71 634.053 1475.32 634.469C1476.72 634.831 1488.38 634.326 1486.69 637.23Z" fill="#77BA80"/>
<path d="M1535.85 599.964C1534.63 603.56 1532.36 605.874 1528.48 606.187C1527.46 609.236 1530.26 608.161 1530.86 609.583C1531.39 610.84 1531.16 612.81 1531.89 614.508C1533.51 618.299 1539.75 626.31 1532.31 627.902C1526.07 629.234 1527.85 625.287 1526.9 622.095C1526.56 620.955 1525.45 620.021 1525.14 618.851C1524.49 616.476 1526.93 612.548 1521.11 612.392C1521.21 620.721 1526.47 630.038 1514.97 631.039C1515.64 623.96 1514.49 617.576 1512.75 610.82C1516.38 606.435 1516.98 590.775 1519.76 588.332C1523.1 585.399 1540 592.369 1545.67 585.031C1548.29 592.328 1540.47 595.622 1534.33 594.737C1529.02 593.972 1518.48 585.223 1521.1 599.317C1522.54 607.079 1530.62 595.917 1535.85 599.964Z" fill="#77BA80"/>
<path d="M824.049 218.467C822.937 217.489 817.127 218.257 815.734 215.082C822.809 207 825.684 214.273 831.064 214.57C839.107 215.014 851.595 207.874 857.231 216.306C857.764 222.636 835.715 227.971 831.351 226.654C826.475 225.182 825.055 219.351 824.049 218.467Z" fill="#77BA80"/>
<path d="M510.592 464.774C511.703 465.681 512.449 468.131 514.722 469.91C516.828 471.559 524.431 474.263 524.434 474.978C524.448 478.154 505.654 480.368 503.48 478.789C501.368 477.254 503.751 472.189 499.971 468.668C498.979 467.744 484.161 461.928 483.26 461.914C479.797 461.862 477.003 469.654 472.85 469.376C470.471 453.432 505.001 460.206 510.592 464.774Z" fill="#77BA80"/>
<path d="M994.809 349.07C992.227 346.369 981.73 342.378 977.341 338.782C974.538 336.485 966.375 324.813 965.037 325.138C957.261 327.025 969.823 344.64 973.911 346.017C975.485 346.548 978.356 345.836 979.043 346.455C979.486 346.854 978.633 349.187 979.883 350.122C982.496 352.075 990.642 352.259 992.529 356.992C992.876 357.863 993.184 359.713 992.045 359.958C989.383 360.534 990.756 356.805 986.888 356.444C978.413 355.654 986.323 362.526 986.322 363.05C986.319 363.45 982.485 369.597 982.2 369.872C979.336 372.63 975.087 370.685 976.689 378.602C974.699 377.729 962.459 374.2 961.962 373.595C961.671 373.24 962.108 370.929 961.943 369.906C968.409 369.182 976.228 373.766 978.665 364.964C980.694 357.628 964.525 352.107 960.109 348.757C955.256 345.075 950.682 335.082 949.718 334.391C945.457 331.346 938.202 340.409 934.039 341.091C931.146 341.565 929.051 339.337 926.645 339.068C917.324 338.024 921.507 343.889 919.037 347.94C917.906 349.796 911.394 350.986 909.051 353.4C908.473 353.997 903.667 361.762 903.503 362.404C903.063 364.139 904.436 366.041 903.604 367.411C903.153 368.154 901.312 368.387 900.427 369.571C899.744 370.483 899.907 372.344 898.976 373.315C894.41 378.087 875.692 377.985 877.152 385.413C877.552 387.442 892.944 389.032 895.084 387.386C896.078 386.622 896.288 384.597 897.737 383.552C907.726 376.348 915.742 380.342 925.628 378.534C932.297 377.315 938.689 373.24 947.653 374.003C948.014 374.035 954.347 375.856 954.593 376.126C954.732 376.279 953.211 378.486 953.58 380.135C953.922 381.664 955.842 382.505 955.804 385.293C955.763 388.195 951.454 393.733 952.141 394.729C952.433 395.153 960.162 400.284 960.648 400.439C963.725 401.422 966.734 400.687 970.215 401.952C974.606 403.547 979.179 410.568 980.098 410.904C982.754 411.873 987.978 411.698 991.464 412.774C993.34 413.354 995.235 416.084 996.801 415.789C1001.82 414.842 998.138 411.23 997.798 410.009C996.691 406.034 1005.4 399.97 1009.38 399.817C1017.71 399.494 1032.85 410.99 1041.8 411.681C1045.05 411.932 1046.62 409.882 1049.78 409.65C1054.07 409.334 1064.18 411.032 1066.46 410.414C1072.51 408.777 1080.8 385.213 1076.18 378.66C1071.69 377.081 1066.69 382.951 1063.35 383.075C1059.63 383.211 1055.54 377.67 1052.39 378.667C1050.86 379.152 1050.77 381.803 1050.24 382.139C1047.96 383.568 1043.67 379.582 1041.29 378.531C1039.2 377.611 1036.76 377.957 1035.33 377.374C1031.77 375.919 1029.8 353.345 1022.9 355.071C1021.25 355.484 1020.32 359.676 1019.07 359.967C1017.27 360.383 1015.89 356.714 1013.56 357.477C1013.46 362.234 1021.9 366.914 1020.87 370.365C1020.35 372.089 1017.11 372.687 1015.93 374.204C1014.04 376.657 1016.21 380.279 1010.73 378.37C1006.32 376.831 1008.3 372.46 1006.8 369.902C1005.99 368.512 1002.34 367.658 1000.64 366.194C992.817 359.484 998.185 352.602 994.809 349.07ZM1148.67 321.515C1148.39 321.138 1140.84 318.06 1140.04 318.236C1139.17 318.426 1126.28 327.218 1125.34 328.181C1119.22 334.475 1125.95 333.961 1127.27 336.258C1127.91 337.373 1125.87 340.001 1127.17 342.541C1128.32 344.812 1141.22 353.182 1142.59 356.864C1143.42 359.099 1140.65 358.262 1140.21 359.61C1139.53 361.647 1137.08 371.152 1137.83 372.251C1142.81 371.713 1147.78 377.914 1150.84 378.382C1153.75 378.827 1158.69 376.268 1162.26 377.353C1160.5 373.708 1161.88 367.959 1160.44 364.907C1159.42 362.745 1151.82 360.236 1152.43 355.626C1152.87 352.256 1162.79 357.458 1161.02 353.13L1155.5 347.522C1147.4 358.164 1151.53 346.755 1150.66 345.035C1149.71 343.134 1138.01 335.673 1137.71 334.369C1137.47 333.341 1141.05 328.091 1142.2 327.722C1144.36 327.026 1147.31 329.067 1147.5 328.874C1147.77 328.615 1148.91 321.849 1148.67 321.515ZM1082.38 317.685C1076.3 318.241 1068.47 319.05 1067.64 326.362L1072.55 328.237C1070.15 328.614 1063.71 333.644 1063.17 333.749C1061.08 334.154 1057.17 328.298 1055.36 326.982L1057.8 323.904C1044.02 316.579 1041.52 331.943 1035.9 340.979C1035.33 343.558 1038.62 344.63 1034.46 345.645C1035.29 348.313 1044.95 352.143 1047.71 352.268C1051.58 352.441 1060.92 345.901 1066.96 346.32C1070.34 346.555 1077.24 351.419 1082.06 352.193C1085.74 352.784 1102.82 353.158 1099.06 346.248C1098.68 345.551 1088.55 336.727 1087.22 335.782C1084.88 334.117 1075.5 330.544 1075.13 329.983C1073.1 326.926 1077.2 326.124 1077.92 325.039C1079.42 322.791 1080.14 319.848 1082.38 317.685ZM1011.1 214.466C1007.25 215.989 999.69 212.883 997.845 217.833C997.18 219.619 998.109 222.067 996.408 223.837C994.058 226.282 986.723 225.342 983 232.647C976.7 245.005 990.644 242.868 988.912 248.547C988.27 250.65 982.402 251.488 980.471 255.074C978.809 258.157 981.715 262.527 978.554 265.469C976.668 267.227 973.38 266.159 971.778 268.581L974.238 272.894C971.883 273.314 970.574 271.122 968.456 270.683C959.867 268.905 963.123 273.421 957.035 277.867C960.108 278.515 962.609 274.063 965.064 274.085C967.878 274.11 967.5 277.137 968.308 277.646C972.16 280.069 983.58 270.214 986.554 272.231C987.357 272.776 987.341 275.197 988.562 275.484C989.93 275.804 998.407 271.996 998.737 271.549C999.564 270.429 995.333 260.94 998.738 258.531C1001.19 256.795 1007.81 257.446 1007.45 261.715C1017.52 256.598 1003.3 252.845 1006.19 249.297C1006.54 248.872 1015.77 246.903 1016.8 246.847C1018.72 246.744 1032.53 249.71 1028.28 243.116C1025.56 238.888 1001.54 252.081 996.995 241.797C995.945 239.424 995.759 228.95 996.979 226.902C997.729 225.643 1014.02 217.086 1011.1 214.466ZM1419.1 184.616L1415.42 179.649C1424.49 180.19 1435.4 179.812 1444.28 180.906C1454.06 182.11 1462.19 186.393 1472.51 187.155C1481.22 187.798 1496.2 186.084 1504.16 189.632C1505.84 190.378 1505.68 192.519 1506.85 193.401C1510.16 195.914 1529.26 194.178 1535.22 194.584C1540.67 194.957 1546.41 198.349 1551.82 196.436C1550.56 195.547 1543.38 190.274 1548.64 190.925C1560.14 192.351 1574.11 193.908 1585.28 196.152C1595.86 198.276 1607.27 202.727 1617.93 205.394C1629.09 208.184 1640.75 208.706 1651.36 213.236L1647.67 215.716L1651.36 221.915C1648.02 222.073 1644.77 222.033 1641.47 221.37C1637.87 220.65 1622.07 211.992 1619.47 214.501C1619.18 214.779 1618.68 220.446 1615.75 221.299C1615.72 223.684 1630.06 227.611 1632.34 229.361C1634.25 230.822 1634.27 232.883 1632.3 233.115C1630.71 233.302 1627.92 231.018 1625.97 230.935C1620.76 230.715 1611.75 239.635 1613.26 245.553C1606.3 244.087 1602.04 239.172 1596.68 246.77C1596.21 240.594 1586.34 244.263 1586.29 246.158C1586.27 246.583 1587.93 248.052 1588.09 249.268C1589.59 260.74 1590.84 252.496 1596.52 256.629C1597.65 257.457 1597.31 259.894 1598.5 261.075C1600.26 262.828 1604.2 262.448 1605.89 264.841L1602.2 266.699L1608.35 274.777L1604.68 274.15C1603.83 278.385 1606.28 279.889 1608.35 282.841L1603.46 284.72C1607.72 287.391 1607.21 291.555 1604.06 295.259L1572.47 266.319C1571.91 265.293 1569.19 257.773 1569.25 257.299C1569.41 256.161 1572.25 255.926 1573.13 253.958C1573.55 253.011 1577.19 239.476 1577.16 238.687C1577.09 237.351 1572.66 230.687 1572.1 230.651C1568.35 230.408 1572.46 236.224 1572.19 236.841C1570.67 240.345 1566.43 242.927 1562.97 239.87C1558.19 235.658 1559.14 232.493 1549.42 234.416C1550.46 236.882 1546.59 243.891 1546.91 244.283C1547.2 244.641 1554.15 245.969 1554.28 249.266C1550.31 249.337 1546.61 250.9 1542.56 250.645C1538.74 250.406 1537.25 248.422 1534.07 247.971C1530.29 247.435 1502.62 248.395 1501.32 250.053C1498.25 253.944 1499.71 260.087 1498.44 264.274C1497.67 266.839 1491.59 271.189 1492.85 272.894C1493.22 273.401 1498.08 273.696 1499.31 274.206C1500.89 274.862 1499.46 277.1 1501.43 276.63L1502.05 271.668L1508.2 280.343C1512.97 271.221 1525.39 281.003 1529.49 287.43C1537.73 300.356 1541.4 309.825 1539.44 325.653C1538.68 331.731 1535.81 342.778 1528.78 343.624C1525.48 344.021 1523.81 339.242 1519.91 343.204C1515.86 347.319 1518.8 352.729 1517.98 355.047C1517.45 356.535 1511.27 360.945 1511.29 361.818C1520.62 369.064 1530.51 373.125 1532 386.559C1531.54 388.524 1520.69 394.004 1518.66 392.992C1515.02 391.18 1516.83 386.222 1515.94 383.205C1515.49 381.656 1513.51 380.747 1512.75 378.938C1512.12 377.439 1512.96 374.543 1512.36 373.771C1511.94 373.222 1502.28 372.077 1501.6 370.984C1499.72 367.993 1504.74 362.795 1498.09 361.533C1488.65 359.74 1490.37 365.07 1483 366.157C1483.33 363.416 1482.83 360.502 1482.62 357.73C1481.88 347.859 1476.37 359.859 1474.32 361.739C1472.75 363.176 1469.11 363.691 1468.31 365.594C1466.37 370.205 1474.85 368.903 1476.6 371.498C1477.61 372.988 1475.5 376.248 1479.76 374.702C1481.52 374.063 1482.27 371.383 1484.86 371.128C1487.56 370.864 1491.93 373.409 1495.31 372.391C1496.33 377.458 1493.48 375.384 1490.32 377.902C1486.94 380.597 1484.7 384.61 1483.01 388.527C1485.68 389.068 1488.46 391.042 1490.41 392.882C1495.4 397.599 1498.8 402.863 1501.56 408.714C1502.13 409.917 1503.88 409.809 1503.95 410.414C1504.33 413.481 1501.12 414.341 1501.45 417.148L1507.57 414.668C1509.81 418.009 1502.96 440.987 1500.46 445.381C1494.08 456.588 1485.41 460.499 1474.53 465.144C1469.21 467.413 1471.08 466.338 1466.64 467.316C1459.91 468.8 1461.32 471.125 1459.65 476.834C1465.52 474.921 1463.92 483.448 1460.85 486.126C1453.5 492.523 1449.01 482.753 1454.85 478.758C1455.95 478.012 1458.23 478.248 1458.43 478.072C1460.67 476.063 1456.16 475.537 1455.98 474.747C1455.73 473.652 1456.14 472.334 1455.91 471.358C1453.56 461.454 1438.12 474.711 1437.84 481.418C1437.51 489.399 1459.41 501.012 1460.87 517.267C1462.21 532.148 1457.78 527.731 1449.91 534.752C1446.54 537.76 1444.25 543.886 1438.78 545.233C1436.99 543.008 1438.98 537.418 1438.26 536.483C1436.97 534.818 1433.87 535.86 1432.88 535.024C1432.54 534.742 1429.54 530.446 1427.7 528.449C1423.64 524.019 1424.73 520.595 1416.65 522.853L1416.64 516.642C1413.97 513.464 1410.82 529.283 1410.6 531.036C1409.49 539.726 1412.28 538.084 1414.5 543.06C1415.52 545.371 1414.99 548.458 1416.04 550.206C1417.2 552.15 1430.25 559.775 1433.22 566.396C1434.59 569.467 1433.44 573.266 1434.12 576.672C1434.68 579.461 1441.23 588.776 1438.76 591.247C1435.73 594.282 1434.15 587.248 1433.22 586.301C1430.88 583.932 1425.82 582.985 1422.15 578.835C1415.02 570.755 1420.08 568.678 1418.49 563.947C1418.22 563.125 1410.07 549.99 1409.33 549.569C1408.16 548.901 1405.87 550.488 1404.36 550.206C1403.78 545.846 1404.85 541.611 1405.13 537.36C1405.32 534.633 1402.25 532.106 1406.75 531.019L1396.97 495.499C1396.4 495.05 1389.13 502.335 1387.48 502.773C1377.9 505.335 1382.15 494.669 1380.46 489.219C1379.28 485.434 1374.84 484.34 1374.74 483.52C1374.58 482.229 1376.4 479.637 1376.11 479.345C1375.98 479.216 1373.72 479.405 1372.54 478.627C1365.58 474.022 1366.76 467.313 1361.95 461.926C1359.85 471.012 1345.29 465.36 1342.18 468.007C1339.66 470.149 1341.25 474.241 1339.26 476.273C1338.2 477.355 1335.72 477.324 1334.62 478.403C1330.71 482.257 1325.25 489.265 1320.26 494.336C1318.75 495.868 1318.54 498.857 1316.54 500.517C1314.77 501.995 1310.1 502.658 1309.82 503.057C1309.05 504.134 1310.92 509.952 1311.01 512.234C1311.16 516.072 1311.56 532.105 1310.33 534.084C1309.55 535.324 1302.7 537.049 1310.33 540.274L1310.35 537.767C1313.78 536.767 1321.86 547.416 1321.96 549.525C1322.13 552.823 1318 560.643 1314.19 560.045C1307.61 559.014 1312.91 536.446 1303.8 541.743C1301.57 543.042 1302.33 552.371 1293.66 545.654C1285.28 518.119 1268.25 494.273 1267.94 464.408C1264.75 465.21 1267.17 468.046 1265.63 470.031C1264.4 471.617 1260.99 473.475 1259 472.936C1256.12 472.159 1245.72 462.398 1251.97 461.305C1245.98 459.8 1239.8 449.401 1235.97 447.643C1231.67 445.667 1217.97 447.46 1212.05 446.978C1208.2 446.665 1189.6 443.653 1187.94 441.527C1186.44 439.602 1187.03 436.01 1186.83 435.799C1185.54 434.445 1177.3 439.126 1174.83 439.277C1171.75 439.466 1160.98 432.872 1158.52 430.264C1153.91 425.364 1153.61 415.098 1145.94 417.387C1134.66 420.751 1146.68 430.736 1149.26 434.667C1150.68 436.848 1151.93 443.509 1154.28 444.506C1155.05 444.832 1155.6 439.498 1158.55 440.79C1162.85 449.741 1158.44 456.658 1171.32 450.569L1184.38 439.543C1184.19 442.815 1184.84 449.867 1186.74 452.399C1188.44 454.657 1198.81 453.279 1202.22 460.711C1205.09 466.977 1196.48 469.175 1198.54 475.609C1197.44 477.449 1195.93 475.695 1194.22 475.594C1194.07 477.946 1194.88 480.932 1193.58 483.044C1193.37 483.382 1188.34 488.425 1188 488.627C1181.27 492.639 1185.33 490.689 1181.41 494.343C1178.6 496.966 1170.36 497.014 1168.67 498.246C1167.91 498.802 1167.67 501.845 1165.9 503.529C1163.59 505.73 1158.63 506.493 1155.67 508.103C1144.58 514.147 1146.66 512.604 1134.86 515.368C1133.74 515.631 1133.36 518.46 1131.29 519.459C1119.28 525.223 1121.17 511.576 1117.73 505.113C1115.61 501.128 1110.63 499.852 1111.89 494.253L1116.78 497.983C1118.33 495.904 1110.13 487.128 1108.38 484.734C1097.83 470.296 1094.23 456.886 1084.61 442.884C1083.43 441.172 1076.61 431.472 1075.98 431.105C1074.32 430.13 1070.93 431.129 1068.86 430.845C1073.09 438.97 1076.47 447.498 1080.51 455.73C1082.46 459.692 1088.22 467.186 1089.2 470.564C1090.26 474.206 1089.11 477.817 1090 480.947C1090.62 483.114 1094.65 485.468 1096.15 488.404C1097.7 491.425 1097.68 495.588 1099.02 497.934C1101.76 502.726 1117.51 513.295 1121.79 520.908C1123.53 524.019 1122.31 526.843 1124.08 529.772C1127.96 536.193 1136.93 529.738 1142.56 528.407C1149.16 526.847 1155.87 526.782 1162.26 524.103C1162.11 528.331 1162.67 532.645 1161.97 536.861C1160.67 544.69 1144.92 572.313 1139.44 578.719C1128.06 592.002 1112.25 601.316 1104.29 619.006C1093.8 642.284 1113.6 660.697 1107.66 685.841C1105.55 694.763 1096.39 696.18 1090.37 700.679C1088.93 701.755 1078.45 712.275 1078.06 713.153C1075.85 718.062 1084.63 732.593 1076.91 740.523C1074.43 743.062 1067.84 744.308 1066.08 748.219C1064.13 752.54 1065.88 758.983 1063.24 764.001C1062.5 765.404 1050.65 779.258 1048.6 781.519C1046.72 783.602 1037.02 793.935 1035.66 794.535C1035.02 794.818 1023.21 798.557 1022.47 798.699C1018.89 799.385 1016.38 797.482 1013.09 797.701C1007.35 798.083 998.121 805.075 993.856 799.574C993.367 798.945 989.599 790.784 989.522 790.276C989.266 788.574 991.623 787.556 991.289 784.923C990.348 777.497 978.026 760.882 976.044 752.943C974.573 747.052 975.448 738.951 973.935 732.693C970.565 718.755 958.263 706.229 959.747 690.472C960.716 680.186 969.964 669.182 969.275 659.164C969.034 655.661 966.112 652.407 965.801 649.997C965.469 647.435 967.687 646.439 967.553 644.619C967.413 642.708 960.258 625.158 958.856 622.357C956.287 617.226 945.651 604.727 944.975 601.522C943.91 596.468 953.346 585.67 949.019 575.11C945.212 565.816 933.135 572.798 929.988 570.788C925.824 568.128 928.595 558.99 918.361 558.295C904.204 557.335 900.013 565.857 890.979 567.411C886.846 568.121 879.833 564.25 872.82 565.108C868.205 565.673 862.783 570.566 859.637 569.897C857.452 569.432 836.644 553.987 834.728 551.485C831.221 546.909 831.236 542.472 828.554 537.835C824.948 531.598 814.394 526.501 813.478 521.945C812.762 518.378 814.541 515.425 814.209 513.662C813.896 512.006 810.736 510.93 810.731 508.55C810.727 506.489 813.43 505.339 814.171 503.264C816.569 496.552 818.047 483.342 816.685 476.494C816.18 473.96 813.357 472.243 813.292 470.014C813.229 467.817 816.749 463.646 817.916 461.045C818.902 458.854 818.802 455.834 819.666 454.112C820.913 451.627 823.404 451.604 824.412 450.208C827.55 445.866 829.647 436.183 836.055 430.902C840.201 427.484 848.272 425.302 851.438 420.355C853.439 417.228 852.177 413.23 853.093 409.597C856.412 396.44 871.263 396.53 874.198 383.624C874.293 383.205 870.54 376.277 870.201 376.017C867.235 373.737 862.25 376.782 858.722 376.106C862.409 371.192 857.25 367.203 857.496 363.161C857.697 359.859 861.834 354.584 862.087 349.05C862.206 346.458 860.102 340.466 861.382 338.995C866.522 333.092 890.798 342.301 896.331 337.698C900.564 334.176 898.468 323.432 895.96 319.264C893.477 315.138 881.238 313.236 883.87 308.93C885.871 305.658 894.841 307.773 898.034 308.967L896.823 301.514C897.349 300.99 904.764 307.061 910.717 301.584C915.461 297.217 910.924 298.802 919.789 294.286C928.865 289.664 924.614 286.002 928.07 282.768C931.56 279.503 941.524 280.559 944.757 278.512C947.711 276.642 943.087 272.145 942.55 269.507C940.988 261.825 946.497 257.842 953.341 256.746C951.296 261.44 955.944 263.712 953.349 267.921C968.406 265.886 957.203 257.611 953.963 249.303C949.571 252.428 945.217 257.604 939.527 256.505C931.312 254.918 933.617 251.522 932.422 246.412C932.194 245.438 930.258 245.623 930.031 244.696C927.437 234.114 936.948 225.431 946.675 224.478C948.803 224.269 951.282 226.424 953.359 225.122C955.068 224.051 956.967 215.648 959.473 212.576C962.27 209.149 976.374 202.085 964.414 201.41C965.809 198.154 997.277 188.73 1002.07 188.418C1005.73 188.18 1008.66 189.899 1011.61 189.596C1013.85 189.366 1015.51 187.376 1017.8 187.265C1020.72 187.123 1025.18 189.358 1028.32 189.602L1027.08 193.31L1070.43 203.245C1076.16 216.381 1051.74 212.471 1044.29 210.742C1043.94 212.673 1046.43 211.96 1047.41 213.238C1048.33 214.448 1046.59 217.442 1048.24 219.128C1049.72 220.63 1058.2 223.88 1060.86 224.426L1055.36 218.2C1060.15 216.03 1064.04 219.39 1068.86 219.427C1069.42 218.909 1067.11 215.003 1067.63 214.473C1067.75 214.343 1069.95 214.428 1071.16 213.738C1076.29 210.812 1076.6 208.674 1083.61 210.717L1077.47 199.551C1080.64 199.761 1084.23 198.782 1087.28 200.183C1094.88 203.685 1087.36 205.885 1087.32 206.377C1087.23 207.654 1090.23 208.423 1091.59 208.258C1093.99 207.965 1095.31 205.309 1097.49 204.254C1100.42 202.838 1114.74 196.463 1116.73 198.393C1117.12 198.763 1116.65 201.092 1116.8 202.029C1122.9 199.465 1129.13 198.71 1135.22 195.792C1135.44 193.476 1130.95 193.948 1130.31 193.302C1125.08 187.965 1141.48 194.085 1142.3 194.247C1145.67 194.913 1149 194.251 1152.5 195.121C1155.51 195.87 1171.38 202.786 1172.09 202.019C1175.59 198.227 1164.92 196.563 1163.51 195.166C1163.19 194.853 1158.57 188.17 1158.6 187.723C1158.64 186.802 1161.5 186.381 1161.97 185.588C1163.34 183.251 1161.3 176.6 1167.13 175.155C1168.87 174.722 1170.13 177.521 1171.81 178.187C1173.43 178.835 1177.23 178.662 1177.66 179.518C1179.44 183.102 1176.04 186.794 1181.32 188.34C1181.38 186.599 1184.65 182.747 1184.4 181.531C1184.06 179.89 1179.68 180.446 1180.71 177.795C1186.06 171.83 1186.21 183.12 1188.38 185.545C1189.33 186.605 1196.87 189.718 1196.04 185.863C1187.39 186.053 1189.92 180.011 1197.06 180.073C1200.26 180.1 1203.31 182.018 1206.5 182.117C1206.97 179.796 1198.19 176.648 1200.36 174.679C1202.46 172.774 1215.36 175.685 1218.79 174.655L1215.11 169.709C1215.98 168.575 1239.95 163.523 1242.83 163.437C1247.63 163.294 1252.84 166.592 1256.94 162.828C1257.96 161.892 1256.94 160.015 1258.07 159.161C1260.75 157.136 1273.78 156.407 1276.92 157.23C1278.21 157.566 1278.09 160.212 1279.77 160.802C1281.7 161.483 1313.19 159.877 1309.19 168.482C1307.71 171.666 1299.32 172.811 1297.45 175.898C1303.58 178.564 1307.47 171 1311.58 171.017C1314.73 171.03 1317.53 175.165 1321.47 175.843C1326.02 176.624 1331.49 174.845 1334.94 175.275C1336.68 175.493 1339.21 177.841 1342.41 178.293C1346.5 178.875 1351.04 178.131 1355.19 178.386C1355.73 176.193 1351.52 178.153 1352.76 175.309C1353.22 174.23 1354.33 173.701 1355.54 173.67C1357.13 173.63 1373.02 177.018 1374.89 177.75C1379.89 179.701 1387.53 187.029 1393.93 189.574C1397.3 190.915 1395.08 184.211 1395.76 183.377C1397.09 182.902 1398.45 184.616 1398.83 184.616H1419.1Z" fill="#77BA80"/>
<path d="M894.368 257.979C903.992 254.965 902.933 260.031 896.839 264.854C896.073 267.406 898.916 266.567 900.541 268.474C902.458 270.723 908.677 283.282 909.367 283.833C910.543 284.773 916.876 283.464 915.238 288.438C914.804 289.755 911.954 290.042 911.705 290.443C911.199 291.257 914.769 293.804 910.717 296.306C906.677 298.801 903.076 296.289 898.841 296.604C897.61 296.695 877.497 303.89 880.842 299.041C884.177 298.676 885.963 295.511 888.191 293.424L883.303 289.088L889.445 287.815L885.762 284.725C887.494 280.477 893.243 283.206 893.159 279.753C892.936 270.692 887.429 275.491 885.855 273.974C885.484 273.618 886.131 271.507 885.498 270.761C885.041 270.224 875.918 267.829 883.278 266.658C880.164 263.216 880.902 260.998 883.302 257.354C888.253 249.835 893.576 253.861 898.669 248.043C901.895 251.121 892.517 256.076 894.368 257.979Z" fill="#77BA80"/>
<path d="M883.262 271.709C882.327 274.312 880.144 288.374 879.454 288.911C878.722 289.482 875.975 288.788 874.453 289.403C870.923 290.83 863.691 295.737 860.487 290.341C858.807 287.511 865.549 285.094 866.09 283.47C866.411 282.509 863.863 282.781 863.078 281.682C862.734 281.202 862.716 276.511 863.59 275.986C866 274.541 869.188 277.247 869.77 276.646C869.929 276.481 869.731 273.65 870.898 272.204C873.868 268.528 879.379 271.305 883.262 271.709Z" fill="#77BA80"/>
<path d="M551.104 482.19C552.584 483.892 553.449 487.511 550.822 487.973C548.714 488.343 543.665 485.749 538.938 488.081C536.925 489.075 537.52 492.885 532.567 491.795C531.792 491.625 531.902 489.362 531.044 489.22C529.043 488.889 522.47 491.551 520.778 489.267C517.621 485.007 528.949 485.874 529.329 485.504C529.866 484.981 529.945 478.38 529.378 476.852C536.184 478.871 546.053 476.381 551.104 482.19Z" fill="#77BA80"/>
<path d="M466.085 501.713C480.219 502.642 471.318 515.629 470.526 523.605C469.885 530.053 470.13 532.135 474.109 537.118C482.908 548.134 486.944 536.966 495.305 539.199C500.391 540.558 501.343 552.214 508.519 540.922C510.307 538.108 510.295 533.313 513.487 531.027C515.588 529.522 519.7 529.086 522.464 527.675C524.326 526.724 531.742 521.612 532.454 521.641C537.665 521.844 528.732 528.926 531.84 531.55C534.295 533.624 538.581 524.626 539.832 524.103C542.156 523.132 541.747 526.383 543.393 527.899C548.974 533.041 553.215 530.529 559.212 531.832C561.736 532.381 564.716 535.376 566.784 535.356C567.344 535.351 567.323 533.272 569.132 532.581C570.362 532.111 580.521 529.922 580.979 530.319C584.265 533.162 574.463 532.261 577.305 535.27C577.602 535.584 583.414 537.329 585.075 538.971C589.451 543.3 595.659 550.782 600.208 555.012C609.532 563.682 616.147 559.149 624.366 561.653C624.994 561.844 633.951 569.186 634.535 570.017C637.413 574.12 636.147 579.04 638.176 582.515C639.326 584.484 642.251 584.665 642.512 585.889C642.975 588.062 641.165 591.379 641.808 592.552C643.126 594.954 651.103 595.734 649.82 601.194C651.815 600.299 652.275 598.469 655.037 598.868C655.773 598.975 668.123 604.33 668.709 604.793C670.386 606.119 669.206 609.206 669.481 611.142C674.132 608.739 678.5 612.389 683.613 612.489C686.907 612.556 690.476 610.737 693.106 611.367C697.994 612.536 706.388 623.56 710.786 625.919C712.956 627.082 716.73 626.949 717.528 628.07C718.555 629.512 721.275 639.292 720.9 641.32C720.504 643.461 713.131 657.44 711.46 660.472C709.17 664.625 703.042 670.899 701.981 674.509C700.381 679.959 700.997 692.575 699.999 699.858C698.682 709.46 696.387 724.111 687.844 729.84C683.895 732.488 678.658 732.807 674.505 734.995C672.65 735.974 660.029 744.284 659.567 745.062C656.948 749.475 659.93 758.42 657.78 765.336C657.409 766.531 653.674 774.736 653.227 775.026C651.97 775.841 649.298 774.731 647.923 776.485C646.202 778.681 644.432 791.117 640.644 796.483C634.04 805.836 628.979 801.566 620.313 797.684C623.074 805.848 634.026 812.872 625.291 821.984C620.006 827.497 608.734 824.456 608.058 825.053C605.294 827.493 612.936 843.021 595.742 837.47C595.935 843.467 599.673 846.823 605.566 846.181C599.054 851.106 601.933 854.897 600.685 860.231C600.372 861.567 597.474 861.093 596.901 864.186C595.412 872.22 605.589 875.885 605.643 876.699C605.784 878.856 602.676 881.131 602.17 883.141C601.443 886.024 602.403 888.919 601.865 891.344C601.615 892.475 597.876 891.292 599.971 897.213C600.413 898.463 608.717 908.813 609.83 909.626C612.512 911.587 623.553 913.966 623.997 914.577C625.76 917.001 617.579 921.708 615.013 921.675C606.548 921.564 589.873 914.922 583.434 908.979C579.275 905.139 564.933 886.884 563.14 882.156C561.661 878.254 565.352 877.188 565.012 875.459C564.595 873.342 559.148 872.969 558.794 871.462C558.129 868.627 560.111 865.252 559.735 863.147C559.524 861.964 557.493 860.679 557.705 859.368C558.032 857.36 561.856 856.614 562.291 855.867C563.911 853.088 560.906 847.039 561.318 843.675C556.187 842.074 563.422 854.242 556.526 849.791C553.664 847.944 552.938 831.145 552.181 827.443C551.447 823.857 548.035 819.851 547.851 816.884C547.364 808.994 550.703 796.725 550.324 788.314C550.057 782.412 547.151 776.72 546.589 770.925C544.819 752.7 548.361 725.459 542.056 708.361C539.355 701.032 523.954 694.064 517.734 688.207C508.469 679.483 496.12 650.631 488.648 638.046C487.203 635.613 484.819 635.36 483.842 633.892C483.225 632.962 480.576 625.086 480.439 623.865C479.677 617.093 486.341 614.013 486.343 613.009C486.344 612.141 481.386 609.944 481.344 605.576C481.328 603.826 486.646 590.185 487.705 589.438C488.617 588.794 490.684 589.044 491.083 588.576C491.801 587.733 490.752 584.541 491.883 582.541C492.501 581.451 495.515 580.392 496.87 578.874C503.411 571.545 499.418 553.662 495.609 545.21C486.067 539.021 488.541 551.928 485.725 552.695C483.036 553.429 480.433 549.522 477.799 548.305C472.827 546.007 461.809 540.619 458.743 535.257C457.679 533.394 458.327 530.751 457.528 529.024C455.728 525.129 451.78 523.017 451.787 518.048C445.914 516.923 435.846 515.223 430.721 512.627C425.998 510.233 423.725 501.737 417.866 500.663C412.012 499.59 410.126 504.543 399.493 500.702C394.386 498.858 370.608 484.908 367.225 481.133C361.728 474.998 369.124 470.453 366.887 462.803C365.499 458.058 353.278 448.267 351.753 444.485C350.887 442.335 353.028 439.722 352.217 436.716C351.604 434.447 345.624 428.699 344.178 424.863C342.799 421.202 342.874 411.248 341.429 410.238C340.444 409.55 335.532 409.373 335.218 409.699C334.946 409.983 334.968 416.028 334.353 417.583L349.395 458.208C344.76 464.458 343.99 456.259 340.677 452.015C339.244 450.178 336.799 449.665 336.541 449.311C336.035 448.616 337.726 445.515 337.746 443.841C337.804 439.034 334.004 439.07 331.472 436.48C324.246 429.087 330.958 429.046 331.205 426.501C331.299 425.516 328.635 422.076 328.151 419.936C325.03 406.133 330.404 396.969 314.298 390.157C314.736 383.277 312.215 375.893 311.826 369.235C311.704 367.166 311.675 358.74 311.884 356.884C312.25 353.623 316.334 351.998 317.842 349.221C323.58 338.658 326.574 335.921 332.542 326.791C336.051 321.423 336.742 314.496 341.141 309.579C335.565 304.892 325.619 293.025 340.115 296.527C338.172 289.083 338.347 281.075 340.141 273.546L332.757 274.145C331.383 266.53 338.184 250.498 328.156 247.086C326.387 246.484 309.717 241.923 308.709 241.855C303.216 241.479 287.486 250.489 279.905 249.266C281.059 246.652 284.342 245.733 286.482 244.121C287.625 243.259 290.331 241.602 286.689 241.836C284.556 245.583 273.106 245.076 272.535 245.557C272.011 245.999 274.254 248.79 273.229 250.513C270.107 255.751 253.432 256.78 247.928 258.58C244.319 259.76 241.325 263.047 237.745 264.441C222.949 270.203 205.926 274.912 190.201 276.021L247.956 254.241C252.107 250.289 236.286 252.302 235.671 251.76L239.351 245.561L231.985 246.786C231.253 238.901 238.481 233.415 245.016 230.763C248.841 229.21 257.139 226.744 261.141 225.94C265.654 225.034 273.56 227.929 272.523 220.682L257.786 220.674C258.206 219.154 257.701 214.64 258.954 213.87C259.969 213.247 277.448 208.469 279.34 208.274C282.4 207.959 280.453 209.265 279.896 210.72L287.278 210.718C286.466 208.092 283.381 201.882 286.014 200.131L339.84 186.108C355.254 192.768 372.676 191.223 388.338 193.652C393.176 194.402 395.943 197.711 397.407 198.003C401.576 198.836 410.124 194.815 413.171 194.717C415.61 194.637 417.973 196.086 421.666 195.696C425.823 195.257 440.955 190.455 442.559 190.729C443.812 190.943 443.88 194.198 445.245 194.556C446.853 194.976 449.258 191.936 451.307 192.008C451.916 192.03 451.822 194.33 452.767 194.555C455.461 195.2 459.207 194.111 462.305 194.663C468.83 195.824 476.107 198.214 482.678 199.551L477.76 204.5C482.171 205.571 486.749 203.362 490.663 203.27C493.585 203.202 497.124 205.308 500.444 204.598C501.78 204.311 500.345 201.565 501.889 200.72C502.329 200.479 511.117 198.346 511.636 198.377C514.171 198.527 515.872 202.238 519.185 203.007C522.117 203.689 535.55 203.87 538.513 203.342C539.892 203.096 538.566 199.537 540.391 197.633C545.371 192.434 555.846 196.442 556.403 195.817C556.614 195.581 555.828 192.459 557.642 190.219C559.079 188.446 566.972 184.781 569.821 182.643C576.326 177.763 576.46 172.714 586.522 172.442C589.195 172.369 592.645 174.216 595.735 173.436C593.602 179.524 574.561 180.757 573.827 184.108C573.7 184.682 574.421 195.404 574.837 195.814C575.221 196.193 579.624 195.534 580.994 195.803C583.523 202.63 575.787 202.06 577.93 207.014C581.651 205.957 595.841 197.155 595.705 193.935C593.783 190.528 587.161 193.657 585.991 190.072C583.629 182.844 603.925 172.597 610.481 174.68L606.192 180.898C616.658 172.149 628.739 175.831 641.215 176.523C643.443 178.045 644.507 182.183 646.642 183.467C648.951 184.854 650.922 184.171 652.667 184.875C653.579 185.245 657.404 187.877 660.519 189.287C668.12 192.727 661.65 196.241 660.23 199.555C658.642 203.258 666.181 202.175 667.88 202.912C670.535 204.063 673.823 208.581 676.818 210.108C672.049 212.599 664.019 220.534 658.936 217.037C656.01 215.023 655.247 207.974 651.011 212.601C647.139 216.832 656.754 220.587 656.041 224.929C655.918 225.667 653.439 226.29 652.379 227.62C651.394 228.855 651.445 231.9 650.383 231.901C646.519 231.906 643.139 225.313 638.747 225.664C640.242 226.493 647.247 236.686 641.968 235.469C639.991 235.013 627.486 230.697 626.511 229.951C624.245 228.217 622.329 220.674 618.211 219.602C613.918 218.484 608.628 227.396 604.359 220.056C608.861 211.572 616.901 218.688 621.998 216.815C624.205 216.003 623.68 212.785 625.259 211.382C628.021 208.926 637.975 209.459 634.437 202.018C626.901 200.946 626.008 209.325 617.861 206.993C617.351 197.967 625.813 202.913 630.119 198.916C624.554 189.614 614.781 196.328 605.559 194.572C608.33 198.886 603.83 199.412 602.625 201.993C601.971 203.395 603.872 204.238 601.166 206.833C597.421 210.426 593.669 209.883 589.647 211.4C585.454 212.982 587.769 215.546 579.759 211.987C580.671 215.946 594.847 221.375 590.824 225.647C588.694 227.908 581.61 223.158 580.348 223.14C578.313 223.113 572.789 229.71 568.689 228.129L569.947 225.66C560.51 224.805 568.882 223.219 570.824 221.59C571.159 221.309 573.842 217.314 570.566 218.21C565.556 222.865 558.297 223.087 552.995 225.267C551.564 225.854 551.534 227.705 549.939 228.486C537.861 234.405 524.537 239.126 515.862 249.907L520.773 250.531L519.554 260.471C523.949 257.737 528.377 260.932 532.313 263.145C534.412 264.324 539.162 268.979 542.599 270.096C545.965 271.189 550.392 271.525 553.952 271.675L549.047 281.003C555.545 281.473 552.454 285.575 547.801 285.357L550.899 292.824C552.734 292.852 558.426 289.528 559.429 287.775C561.031 284.973 562.084 273.502 562.636 272.992C562.981 272.673 566.901 272.978 568.728 272.326C574.742 270.182 585.991 263.91 584.775 256.307C584.571 255.036 581.062 254.66 581.011 253.633C580.981 253.019 588.109 246.888 589.413 244.748C590.902 242.306 594.124 231.931 595.955 230.833C597.254 230.055 603.594 231.864 606.179 231.994C608.669 232.119 611.905 230.632 613.412 230.919C616.234 231.458 620.923 240.947 626.457 239.341C627.975 241.004 620.547 244.255 623.403 250.491C627.996 260.516 644.51 239.899 646.114 241.824C645.833 247.446 648.161 253.158 648.581 258.608C649.005 264.117 644.455 264.535 651.655 270.414C656.812 274.627 661.05 274.69 661.863 283.79C662.294 288.629 658.549 289.431 657.849 291.506C657.338 293.025 658.655 294.562 658.469 295.729C658.279 296.913 655.354 295.894 656.093 298.211C659.208 307.968 663.555 302.376 665.782 304.006C662.966 311.553 668.909 316.523 658.424 320.157C656.876 311.513 656.118 317.282 654.139 317.302C653.464 317.309 652.023 315.467 650.369 315.252C645.358 314.599 640.101 314.296 635.06 313.93L644.259 302.732L654.717 292.815C647.091 295.127 642.721 299.182 634.292 300.108C627.228 300.884 614.496 298.801 608.884 300.512C606.802 301.146 605.969 303.772 604.297 304.575C600.831 306.238 595.976 305.985 592.649 310.204C591.357 312.969 594.452 310.888 595.368 310.462C602.109 307.321 607.503 303.03 615.394 306.496C613.76 312.82 604.271 318.208 611.121 323.868C618.802 330.213 627.569 315.986 628.903 317.673C631.227 329.019 629.521 323.24 623.725 326.411C622.454 327.107 622.231 329.037 620.733 329.86C615.777 332.584 605.298 333.525 599.786 337.383C597.369 337.618 597.136 334.775 595.746 333.203L599.421 330.121C592.323 331.22 575.295 336.526 572.998 343.844C572.324 345.99 573.895 347.888 573.517 349.225C572.944 351.254 557.911 353.792 554.284 355.935C552.871 356.77 537.637 371.575 537.032 372.651C536.139 374.24 537.105 377.706 536.458 380.177C534.106 389.164 515.058 396.812 507.879 403.487C502.979 408.042 498.406 413.434 498.649 420.228C498.996 429.965 503.144 436.764 497.404 446.999C492.228 445.36 487.642 436.822 487.964 431.624C488.214 427.599 491.458 427.401 488.151 422.218C483.61 415.099 480.332 421.464 477.716 420.27C476.324 419.634 475.187 416.558 473.317 416.197C472.681 416.074 461.099 416.363 460.491 416.588C458.587 417.297 457.317 421.553 453.732 422.144C448.147 423.068 443.482 418.143 436.89 419.935C433.421 420.878 415.788 433.735 414.67 437.252C414.94 446.354 407.663 456.665 407.617 465.023C407.579 471.656 414.061 486.852 421.686 486.753C423.282 486.732 437.883 482.684 438.864 481.923C440.767 480.447 440.987 472.623 442.409 470.922C444.632 468.26 460.324 466.503 460.525 469.996C460.584 471.03 453.376 485.899 452.237 488.944C450.73 492.968 448.85 497.487 448.266 501.713C454.159 501.994 460.194 501.326 466.085 501.713Z" fill="#77BA80"/>
<path d="M854.686 138.995C855.411 139.382 855.584 141.773 856.772 141.971C859.586 142.441 868.954 140.063 872.808 139.799C874.123 139.71 878.611 138.945 878.374 141.077C871.811 142.364 865.916 146.976 859.978 149.204C856.653 150.45 852.246 149.132 849.411 152.256L853.782 160.368C853.747 161.371 845.989 162.673 846.348 168.999C846.379 169.539 850.936 169.937 848.885 172.162C848.551 172.525 841.86 174.758 839.88 176.121C830.453 182.613 836.068 190.581 832.952 192.793C831.569 193.775 829.246 191.969 827.504 192.184C809.456 194.409 795.156 205.423 780.049 211.329C773.099 214.046 761.602 214.076 755.82 217.9C754.967 218.463 743.744 230.816 741.965 232.837C730.664 245.679 736.03 250.137 716.138 241.178C714.75 240.552 712.213 240.966 711.484 240.342C711.059 239.98 708.113 231.021 707.849 229.719C706.167 221.443 705.322 202.079 713.027 196.982C715.146 195.582 718.103 196.135 719.843 193.924C720.055 189.683 711.591 197.071 711.29 192.716C710.93 187.493 717.294 187.701 721.076 187.089C720.218 184.113 714.837 184.757 712.487 184.609C711.481 183.759 719.288 175.75 716.852 170.958C712.193 161.79 678.393 165.195 676.952 156.453C676.684 154.828 678.744 152.957 680.169 152.539C684.225 151.351 706.593 150.773 707.573 149.793C710.052 147.315 703.228 145.37 705.105 143.587C706.483 142.277 737.901 139.106 742.595 138.612C754.294 137.38 767.023 135.832 778.296 134.943C796.892 133.48 838.695 130.455 854.686 138.995Z" fill="#77BA80"/>
<path d="M722.306 136.125C722.893 139.692 721.546 138.184 719.465 138.773C705.767 142.656 690.499 143.959 677.092 148.184C669.043 150.721 653.447 161.132 647.428 161.667C645.97 161.796 644.964 160.201 644.318 160.257C639.569 160.677 636.691 160.662 632.044 160.939C627.025 161.237 616.768 161.698 614.17 165.952C622.744 163.379 631.303 165.12 639.976 165.969C639.119 173.092 630.651 169.752 627.262 170.14C623.921 170.523 620.533 171.947 617.22 172.16C614.683 172.323 599.179 170.548 598.18 169.688C597.609 169.196 601.61 158.336 590.244 171.71L568.697 168.438C568.402 165.403 571.359 160.104 574.254 159.674C580.261 158.78 583.147 161.407 582.911 167.203C593.787 167.59 588.082 160.054 589.584 158.494C590.026 158.034 596.718 158.549 598.266 159.051C600.776 159.864 602.369 163.272 604.705 163.241C606.956 163.211 621.342 158.642 622.77 156.027C613.479 158.869 609.027 154.627 610.488 144.829C613.638 143.393 612.71 147.488 613.528 147.321C616.475 146.723 620.542 141.676 623.41 141.118C631.435 139.557 646.135 140.812 655.319 139.832C661.095 139.216 667.009 136.661 672.552 136.13C688.359 134.613 706.27 137.227 722.306 136.125Z" fill="#77BA80"/>
<path d="M522.024 183.361C522.264 183.56 523.685 183.299 524.435 183.363C524.798 179.175 530.66 176.031 534.249 175.208C539.313 174.046 533.486 186.901 533.473 187.741C533.446 189.616 541.492 195.025 530.53 198.902C525.829 200.565 524.953 197.582 521.319 197.117C515.364 196.353 504.382 197.418 498.326 198.588C495.075 199.216 490.946 202.38 488.2 202.112C486.201 201.918 482.054 194.897 477.762 195.793L486.361 180.898C484.991 179.592 478.785 185.987 476.811 186.765C470.16 189.389 463.193 189.842 460.558 182.144C461.067 181.486 474.417 178.392 476.215 176.84C477.621 175.627 476.921 172.297 479.837 171.175C484.704 169.302 489.725 170.858 494.294 170.995C495.979 171.045 497.839 169.733 499.358 169.789C503.369 169.937 504.604 176.319 507.281 177.749C510.646 179.546 516.767 178.72 519.992 179.845C522.111 180.584 521.749 183.132 522.024 183.361Z" fill="#77BA80"/>
<path d="M523.229 162.22C529 160.559 532.312 166.506 537.242 165.978C540.633 165.615 546.834 159.746 548.43 159.776C550.004 159.806 549.389 162.951 549.783 163.523C550.645 164.775 553.444 163.959 552.711 166.566C549.248 171.783 542.873 169 537.494 169.827C533.438 170.45 525.006 174.292 522.593 174.185C520.664 174.099 518.068 171.262 515.893 170.277C511.549 168.31 511.155 168.004 507.536 165.988C504.785 164.455 500.967 165.125 498.037 164.69C495.894 164.372 495.975 165.336 496.199 162.239C502.075 163.682 505.985 160.317 510.929 159.112C513.37 158.516 528.296 153.85 526.314 158.503L523.229 162.22Z" fill="#77BA80"/>
<path d="M571.15 172.187C571.449 172.489 570.083 179.95 569.64 180.589C569.273 181.116 558.976 185.482 557.931 185.65C552.404 186.541 552.664 181.749 547.815 180.862L550.879 175.934L555.169 179.642C555.447 178.264 554.803 173.801 555.175 173.418C555.736 172.839 568.346 173.899 571.15 172.187Z" fill="#77BA80"/>
<path d="M446.344 241.904C446.344 246.993 442.27 251.119 437.245 251.119C432.219 251.119 428.145 246.993 428.145 241.904C428.145 236.815 432.219 232.689 437.245 232.689C442.27 232.689 446.344 236.815 446.344 241.904Z" fill="#FBB03C"/>
<path d="M437.384 241.787L379.596 173.597H243.963" stroke="#FBB03C"/>
<path d="M254.683 164.184C249.186 164.184 245.23 160.297 245.23 155.053C245.23 149.74 249.324 145.922 254.66 145.922C258.271 145.922 261.399 147.739 262.503 150.775L260.341 151.557C259.49 149.51 257.282 148.13 254.683 148.13C250.566 148.13 247.806 151.12 247.806 155.076C247.806 159.216 250.796 161.976 254.683 161.976C257.075 161.976 259.26 160.757 260.295 158.94L262.503 159.745C261.123 162.505 258.156 164.184 254.683 164.184ZM269.525 164.115C266.305 164.115 263.89 161.378 263.89 158.043C263.89 154.662 266.42 152.017 269.64 152.017C272.331 152.017 273.895 153.903 273.895 153.903L274.24 152.293H276.264V163.839H274.24L273.895 162.16C273.895 162.16 272.262 164.115 269.525 164.115ZM266.259 158.066C266.259 160.251 267.731 162.045 270.077 162.045C272.446 162.045 273.964 160.182 273.964 158.043C273.964 155.858 272.354 154.064 270.077 154.064C267.8 154.064 266.259 155.858 266.259 158.066ZM279.385 163.839V152.293H281.409L281.754 153.903C282.559 152.615 283.916 152.017 285.595 152.017C288.585 152.017 289.919 153.834 289.919 156.87V163.839H287.573V157.514C287.573 155.467 286.906 154.087 284.882 154.087C282.651 154.087 281.754 155.743 281.754 157.836V163.839H279.385ZM297.669 164.115C294.449 164.115 292.034 161.378 292.034 158.043C292.034 154.662 294.564 152.017 297.784 152.017C300.475 152.017 302.039 153.903 302.039 153.903L302.384 152.293H304.408V163.839H302.384L302.039 162.16C302.039 162.16 300.406 164.115 297.669 164.115ZM294.403 158.066C294.403 160.251 295.875 162.045 298.221 162.045C300.59 162.045 302.108 160.182 302.108 158.043C302.108 155.858 300.498 154.064 298.221 154.064C295.944 154.064 294.403 155.858 294.403 158.066ZM312.358 164.115C309.138 164.115 306.723 161.378 306.723 158.043C306.723 154.662 309.253 152.017 312.473 152.017C314.428 152.017 316.061 153.098 316.728 153.903V146.52H319.097V163.839H317.073L316.728 162.16C316.015 163.011 314.359 164.115 312.358 164.115ZM309.092 158.066C309.092 160.251 310.564 162.045 312.91 162.045C315.279 162.045 316.797 160.182 316.797 158.043C316.797 155.858 315.187 154.064 312.91 154.064C310.633 154.064 309.092 155.858 309.092 158.066ZM327.048 164.115C323.828 164.115 321.413 161.378 321.413 158.043C321.413 154.662 323.943 152.017 327.163 152.017C329.854 152.017 331.418 153.903 331.418 153.903L331.763 152.293H333.787V163.839H331.763L331.418 162.16C331.418 162.16 329.785 164.115 327.048 164.115ZM323.782 158.066C323.782 160.251 325.254 162.045 327.6 162.045C329.969 162.045 331.487 160.182 331.487 158.043C331.487 155.858 329.877 154.064 327.6 154.064C325.323 154.064 323.782 155.858 323.782 158.066Z" fill="#131414"/>
<path d="M104.629 766.041H124.317V770.069H116.667V781.611H112.279V770.069H104.629V766.041ZM131.169 771.891H143.656V766.041H148.044V781.611H143.656V775.761H131.169V781.611H126.781V766.041H131.169V771.891ZM151.566 766.041H170.106V769.799H155.841V771.981H168.531V775.671H155.841V777.831H170.106V781.611H151.566V766.041ZM180.9 766.041H185.287V777.516H198.922V781.611H180.9V766.041ZM201.811 766.041L207.796 772.769L213.804 766.041H219.294L210.001 776.256V781.611H205.614V776.256L196.299 766.041H201.811ZM220.802 766.041H233.987C239.41 766.041 242.492 768.944 242.492 773.826V773.849C242.492 778.709 239.41 781.611 233.987 781.611H220.802V766.041ZM225.19 769.979V777.674H233.987C236.89 777.674 238.217 776.256 238.217 773.849V773.826C238.217 771.396 236.89 769.979 233.987 769.979H225.19ZM249.513 781.611H245.126V766.041H249.513V781.611ZM265.906 766.041L275.784 781.611H271.059L269.394 778.799H258.076L256.389 781.611H251.664L261.541 766.041H265.906ZM267.189 775.244L263.724 769.799L260.259 775.244H267.189ZM282.048 766.041L290.125 774.276L298.203 766.041H302.275V781.611H297.955V772.139L291.138 779.091H289.113L282.295 772.139V781.611H277.975V766.041H282.048ZM334.338 781.611H329.523L326.688 777.021H317.868V781.611H313.593V766.041H326.935C332.043 766.041 333.955 768.359 333.955 771.576V771.599C333.955 773.781 333.055 775.514 330.873 776.391L334.338 781.611ZM326.935 769.844H317.868V773.376H326.935C328.848 773.376 329.68 772.926 329.68 771.599V771.576C329.68 770.316 328.848 769.844 326.935 769.844ZM336.862 766.041H355.402V769.799H341.137V771.981H353.827V775.671H341.137V777.831H355.402V781.611H336.862V766.041ZM371.309 766.041L381.186 781.611H376.461L374.796 778.799H363.479L361.791 781.611H357.066L366.944 766.041H371.309ZM372.591 775.244L369.126 769.799L365.661 775.244H372.591ZM402.838 767.886L400.318 770.969C399.395 770.069 398.18 769.821 396.538 769.821H390.215C387.47 769.821 385.895 771.329 385.895 773.804V773.826C385.918 776.324 387.493 777.831 390.215 777.831H396.538C398.293 777.831 399.44 777.539 400.318 776.661L402.838 779.766C401.33 781.184 399.463 781.746 396.538 781.746H390.215C384.793 781.746 381.62 778.709 381.62 773.826V773.804C381.62 768.921 384.793 765.906 390.215 765.906H396.538C399.35 765.906 401.285 766.401 402.838 767.886ZM409.54 771.891H422.028V766.041H426.415V781.611H422.028V775.761H409.54V781.611H405.153V766.041H409.54V771.891Z" fill="#004931"/>
<path d="M906.558 278.37C906.558 283.459 902.484 287.585 897.458 287.585C892.433 287.585 888.359 283.459 888.359 278.37C888.359 273.281 892.433 269.155 897.458 269.155C902.484 269.155 906.558 273.281 906.558 278.37Z" fill="#004931"/>
<path d="M897.939 279.553L955.728 172.548H1161.29" stroke="#004931"/>
<path d="M986.149 162.132C982.055 162.132 979.387 159.533 979.387 155.462V144.169H981.894V155.117C981.894 158.038 983.412 159.924 986.149 159.924C988.932 159.924 990.404 158.038 990.404 155.117V144.169H992.934V155.462C992.934 159.533 990.266 162.132 986.149 162.132ZM996.23 161.741V150.195H998.254L998.599 151.805C999.404 150.517 1000.76 149.919 1002.44 149.919C1005.43 149.919 1006.76 151.736 1006.76 154.772V161.741H1004.42V155.416C1004.42 153.369 1003.75 151.989 1001.73 151.989C999.496 151.989 998.599 153.645 998.599 155.738V161.741H996.23ZM1009.73 161.741V150.218H1012.07V161.741H1009.73ZM1009.13 146.147C1009.13 145.204 1009.89 144.445 1010.9 144.445C1011.91 144.445 1012.67 145.204 1012.67 146.147C1012.67 147.09 1011.91 147.849 1010.9 147.849C1009.89 147.849 1009.13 147.09 1009.13 146.147ZM1019.88 162.063C1017.3 162.063 1016.11 160.476 1016.11 157.693V152.081H1013.94V150.218H1016.11V146.308H1018.45V150.218H1021.79V152.081H1018.45V157.808C1018.45 159.28 1019 159.947 1020.27 159.947C1020.73 159.947 1021.23 159.855 1021.72 159.717L1021.95 161.649C1021.37 161.925 1020.61 162.063 1019.88 162.063ZM1029.05 162.017C1025.65 162.017 1023.14 159.74 1023.14 155.922C1023.14 152.426 1025.3 149.919 1028.96 149.919C1032.43 149.919 1034.67 152.196 1034.67 155.623C1034.67 155.922 1034.64 156.267 1034.6 156.635H1025.51C1025.72 158.843 1026.98 160.085 1029.1 160.085C1030.55 160.085 1031.65 159.51 1032.39 158.36L1034.39 158.958C1033.54 160.867 1031.51 162.017 1029.05 162.017ZM1025.51 154.887H1032.34C1032.18 152.978 1030.92 151.759 1028.98 151.759C1027.08 151.759 1025.63 152.955 1025.51 154.887ZM1041.89 162.017C1038.67 162.017 1036.26 159.28 1036.26 155.945C1036.26 152.564 1038.79 149.919 1042.01 149.919C1043.96 149.919 1045.6 151 1046.26 151.805V144.422H1048.63V161.741H1046.61L1046.26 160.062C1045.55 160.913 1043.89 162.017 1041.89 162.017ZM1038.63 155.968C1038.63 158.153 1040.1 159.947 1042.45 159.947C1044.81 159.947 1046.33 158.084 1046.33 155.945C1046.33 153.76 1044.72 151.966 1042.45 151.966C1040.17 151.966 1038.63 153.76 1038.63 155.968ZM1057.98 161.741V144.169H1060.49V152.426L1068.22 144.169H1071.46L1063.3 152.817L1071.76 161.741H1068.5L1060.49 153.323V161.741H1057.98ZM1073.59 161.741V150.218H1075.93V161.741H1073.59ZM1072.99 146.147C1072.99 145.204 1073.75 144.445 1074.76 144.445C1075.77 144.445 1076.53 145.204 1076.53 146.147C1076.53 147.09 1075.77 147.849 1074.76 147.849C1073.75 147.849 1072.99 147.09 1072.99 146.147ZM1079.11 161.741V150.195H1081.13L1081.48 151.805C1082.28 150.517 1083.64 149.919 1085.32 149.919C1088.31 149.919 1089.64 151.736 1089.64 154.772V161.741H1087.3V155.416C1087.3 153.369 1086.63 151.989 1084.61 151.989C1082.38 151.989 1081.48 153.645 1081.48 155.738V161.741H1079.11ZM1097.99 167.077C1095.02 167.077 1092.59 165.536 1092.01 163.121L1093.94 162.546C1094.68 164.133 1095.92 165.007 1097.95 165.007C1100.43 165.007 1101.79 163.627 1101.79 161.074V159.878C1100.87 161.097 1099.23 161.81 1097.58 161.81C1094.24 161.81 1091.78 159.119 1091.78 155.968C1091.78 152.518 1094.27 149.942 1097.72 149.942C1099.37 149.942 1100.84 150.609 1101.79 151.874L1102.13 150.218H1104.16L1104.18 161.051C1104.18 164.8 1102.11 167.077 1097.99 167.077ZM1094.17 155.991C1094.17 157.946 1095.74 159.74 1098.01 159.74C1100.25 159.74 1101.86 158.107 1101.86 155.945C1101.86 153.714 1100.31 152.012 1098.01 152.012C1095.6 152.012 1094.17 153.76 1094.17 155.991ZM1112.17 162.017C1108.95 162.017 1106.54 159.28 1106.54 155.945C1106.54 152.564 1109.07 149.919 1112.29 149.919C1114.24 149.919 1115.88 151 1116.54 151.805V144.422H1118.91V161.741H1116.89L1116.54 160.062C1115.83 160.913 1114.18 162.017 1112.17 162.017ZM1108.91 155.968C1108.91 158.153 1110.38 159.947 1112.73 159.947C1115.1 159.947 1116.61 158.084 1116.61 155.945C1116.61 153.76 1115 151.966 1112.73 151.966C1110.45 151.966 1108.91 153.76 1108.91 155.968ZM1127.6 162.017C1123.94 162.017 1121.25 159.441 1121.25 155.968C1121.25 152.61 1123.85 149.919 1127.62 149.919C1131.26 149.919 1133.95 152.495 1133.95 155.968C1133.95 159.395 1131.32 162.017 1127.6 162.017ZM1123.62 155.968C1123.62 158.13 1125.14 159.97 1127.62 159.97C1129.9 159.97 1131.58 158.337 1131.58 155.968C1131.58 153.806 1130.06 151.966 1127.6 151.966C1125.32 151.966 1123.62 153.553 1123.62 155.968ZM1136.3 161.741V150.218H1138.3L1138.64 151.759C1139.26 150.586 1140.57 149.919 1142.14 149.919C1143.68 149.919 1145.08 150.586 1145.8 151.989C1146.49 150.678 1147.98 149.919 1149.77 149.919C1152.44 149.919 1153.89 151.575 1153.89 154.473V161.741H1151.57V155.071C1151.57 153.185 1150.9 151.989 1149.08 151.989C1147.13 151.989 1146.28 153.415 1146.28 155.554V161.741H1143.93V155.117C1143.93 153.231 1143.27 151.989 1141.47 151.989C1139.45 151.989 1138.67 153.576 1138.67 155.623V161.741H1136.3Z" fill="#131414"/>
<path d="M1171.08 448.659C1171.08 453.749 1167 457.875 1161.98 457.875C1156.95 457.875 1152.88 453.749 1152.88 448.659C1152.88 443.57 1156.95 439.444 1161.98 439.444C1167 439.444 1171.08 443.57 1171.08 448.659Z" fill="#004931"/>
<path d="M1162.27 448.22L1191.85 398.099H1296.99" stroke="#004931"/>
<path d="M1231.59 388.589V371.017H1236.46C1242.23 371.017 1246.67 374.352 1246.67 379.803C1246.67 385.277 1242.42 388.589 1236.71 388.589H1231.59ZM1234.09 386.381H1236.69C1241.08 386.381 1244.1 383.897 1244.1 379.803C1244.1 375.847 1241.04 373.225 1236.69 373.225H1234.09V386.381ZM1253.15 388.865C1250.11 388.865 1248.82 386.979 1248.82 384.035V377.043H1251.17V383.368C1251.17 385.507 1251.9 386.818 1253.86 386.818C1256.07 386.818 1256.99 385.139 1256.99 383.046V377.043H1259.36V388.589H1257.33L1256.99 386.979C1256.2 388.244 1254.87 388.865 1253.15 388.865ZM1269.2 388.865C1267.22 388.865 1265.56 387.761 1264.85 386.91L1264.51 388.589H1262.48V371.27H1264.85V378.653C1265.52 377.848 1267.15 376.767 1269.11 376.767C1272.3 376.767 1274.86 379.412 1274.86 382.793C1274.86 386.128 1272.44 388.865 1269.2 388.865ZM1264.78 382.793C1264.78 384.932 1266.28 386.795 1268.65 386.795C1270.99 386.795 1272.49 385.001 1272.49 382.816C1272.49 380.608 1270.95 378.814 1268.65 378.814C1266.39 378.814 1264.78 380.608 1264.78 382.793ZM1282 388.865C1278.78 388.865 1276.37 386.128 1276.37 382.793C1276.37 379.412 1278.9 376.767 1282.12 376.767C1284.81 376.767 1286.37 378.653 1286.37 378.653L1286.72 377.043H1288.74V388.589H1286.72L1286.37 386.91C1286.37 386.91 1284.74 388.865 1282 388.865ZM1278.74 382.816C1278.74 385.001 1280.21 386.795 1282.55 386.795C1284.92 386.795 1286.44 384.932 1286.44 382.793C1286.44 380.608 1284.83 378.814 1282.55 378.814C1280.28 378.814 1278.74 380.608 1278.74 382.816ZM1291.86 388.589V377.066H1294.21V388.589H1291.86ZM1291.26 372.995C1291.26 372.052 1292.02 371.293 1293.03 371.293C1294.05 371.293 1294.81 372.052 1294.81 372.995C1294.81 373.938 1294.05 374.697 1293.03 374.697C1292.02 374.697 1291.26 373.938 1291.26 372.995Z" fill="#131414"/>
<path d="M953.07 325.248C953.07 330.337 948.996 334.463 943.971 334.463C938.945 334.463 934.871 330.337 934.871 325.248C934.871 320.159 938.945 316.033 943.971 316.033C948.996 316.033 953.07 320.159 953.07 325.248Z" fill="#FBB03C"/>
<path d="M943.971 325.248L909.167 386.559H713.76" stroke="#FBB03C"/>
<path d="M720.674 375.76C717.155 375.76 714.579 373.966 713.912 371.183L716.051 370.516C716.695 372.471 718.466 373.552 720.605 373.552C722.813 373.552 724.055 372.54 724.055 370.861C724.055 369.366 723.135 368.63 721.479 368.009L718.742 366.974C716.051 365.962 714.671 364.582 714.671 362.213C714.671 359.476 717.04 357.544 720.191 357.544C723.066 357.544 725.274 358.993 726.033 361.362L724.009 362.075C723.365 360.626 721.985 359.752 720.306 359.752C718.558 359.752 717.178 360.741 717.178 362.282C717.178 363.57 718.144 364.237 719.961 364.927L722.56 365.916C725.113 366.882 726.562 368.446 726.562 370.769C726.562 373.989 724.377 375.76 720.674 375.76ZM732.156 375.438L727.556 363.892H730.063L733.122 372.126L736.204 363.892H738.458L741.54 372.126L744.576 363.892H747.083L742.483 375.438H740.62L737.308 366.606L734.019 375.438H732.156ZM748.837 375.438V363.915H751.183V375.438H748.837ZM748.239 359.844C748.239 358.901 748.998 358.142 750.01 358.142C751.022 358.142 751.781 358.901 751.781 359.844C751.781 360.787 751.022 361.546 750.01 361.546C748.998 361.546 748.239 360.787 748.239 359.844ZM758.94 375.76C756.364 375.76 755.168 374.173 755.168 371.39V365.778H753.006V363.915H755.168V360.005H757.514V363.915H760.849V365.778H757.514V371.505C757.514 372.977 758.066 373.644 759.331 373.644C759.791 373.644 760.297 373.552 760.78 373.414L761.01 375.346C760.435 375.622 759.676 375.76 758.94 375.76ZM761.994 375.438V374.771L768.802 365.916H762.385V363.892H772.505V364.467L765.674 373.391H772.62V375.438H761.994ZM779.729 375.714C776.325 375.714 773.818 373.437 773.818 369.619C773.818 366.123 775.98 363.616 779.637 363.616C783.11 363.616 785.341 365.893 785.341 369.32C785.341 369.619 785.318 369.964 785.272 370.332H776.187C776.394 372.54 777.659 373.782 779.775 373.782C781.224 373.782 782.328 373.207 783.064 372.057L785.065 372.655C784.214 374.564 782.19 375.714 779.729 375.714ZM776.187 368.584H783.018C782.857 366.675 781.592 365.456 779.66 365.456C777.751 365.456 776.302 366.652 776.187 368.584ZM787.694 375.438V363.915H789.695L790.04 365.571C790.684 364.398 792.064 363.731 793.306 363.731C793.789 363.731 794.456 363.823 794.801 363.938L794.479 366.054C794.111 365.916 793.72 365.847 793.306 365.847C791.213 365.847 790.04 367.756 790.04 369.895V375.438H787.694ZM796.588 375.438V357.314H798.957V375.438H796.588ZM806.921 375.714C803.701 375.714 801.286 372.977 801.286 369.642C801.286 366.261 803.816 363.616 807.036 363.616C809.727 363.616 811.291 365.502 811.291 365.502L811.636 363.892H813.66V375.438H811.636L811.291 373.759C811.291 373.759 809.658 375.714 806.921 375.714ZM803.655 369.665C803.655 371.85 805.127 373.644 807.473 373.644C809.842 373.644 811.36 371.781 811.36 369.642C811.36 367.457 809.75 365.663 807.473 365.663C805.196 365.663 803.655 367.457 803.655 369.665ZM816.781 375.438V363.892H818.805L819.15 365.502C819.955 364.214 821.312 363.616 822.991 363.616C825.981 363.616 827.315 365.433 827.315 368.469V375.438H824.969V369.113C824.969 367.066 824.302 365.686 822.278 365.686C820.047 365.686 819.15 367.342 819.15 369.435V375.438H816.781ZM835.065 375.714C831.845 375.714 829.43 372.977 829.43 369.642C829.43 366.261 831.96 363.616 835.18 363.616C837.135 363.616 838.768 364.697 839.435 365.502V358.119H841.804V375.438H839.78L839.435 373.759C838.722 374.61 837.066 375.714 835.065 375.714ZM831.799 369.665C831.799 371.85 833.271 373.644 835.617 373.644C837.986 373.644 839.504 371.781 839.504 369.642C839.504 367.457 837.894 365.663 835.617 365.663C833.34 365.663 831.799 367.457 831.799 369.665Z" fill="#131414"/>
<path d="M1302.93 491.758C1302.93 496.847 1298.86 500.973 1293.83 500.973C1288.81 500.973 1284.73 496.847 1284.73 491.758C1284.73 486.669 1288.81 482.543 1293.83 482.543C1298.86 482.543 1302.93 486.669 1302.93 491.758Z" fill="#004931"/>
<path d="M1294.12 491.002L1259.31 552.313H1168.02" stroke="#004931"/>
<path d="M1174.07 541.192V523.62H1176.63V541.192H1174.07ZM1180.15 541.192V529.646H1182.18L1182.52 531.256C1183.33 529.968 1184.68 529.37 1186.36 529.37C1189.35 529.37 1190.69 531.187 1190.69 534.223V541.192H1188.34V534.867C1188.34 532.82 1187.67 531.44 1185.65 531.44C1183.42 531.44 1182.52 533.096 1182.52 535.189V541.192H1180.15ZM1198.44 541.468C1195.22 541.468 1192.8 538.731 1192.8 535.396C1192.8 532.015 1195.33 529.37 1198.55 529.37C1200.51 529.37 1202.14 530.451 1202.81 531.256V523.873H1205.18V541.192H1203.15L1202.81 539.513C1202.09 540.364 1200.44 541.468 1198.44 541.468ZM1195.17 535.419C1195.17 537.604 1196.64 539.398 1198.99 539.398C1201.36 539.398 1202.88 537.535 1202.88 535.396C1202.88 533.211 1201.27 531.417 1198.99 531.417C1196.71 531.417 1195.17 533.211 1195.17 535.419ZM1208.3 541.192V529.669H1210.64V541.192H1208.3ZM1207.7 525.598C1207.7 524.655 1208.46 523.896 1209.47 523.896C1210.48 523.896 1211.24 524.655 1211.24 525.598C1211.24 526.541 1210.48 527.3 1209.47 527.3C1208.46 527.3 1207.7 526.541 1207.7 525.598ZM1218.61 541.468C1215.39 541.468 1212.97 538.731 1212.97 535.396C1212.97 532.015 1215.5 529.37 1218.72 529.37C1221.41 529.37 1222.98 531.256 1222.98 531.256L1223.32 529.646H1225.35V541.192H1223.32L1222.98 539.513C1222.98 539.513 1221.34 541.468 1218.61 541.468ZM1215.34 535.419C1215.34 537.604 1216.81 539.398 1219.16 539.398C1221.53 539.398 1223.05 537.535 1223.05 535.396C1223.05 533.211 1221.44 531.417 1219.16 531.417C1216.88 531.417 1215.34 533.211 1215.34 535.419Z" fill="#131414"/>
<path d="M136.046 834.191C136.046 828.438 140.651 823.775 146.332 823.775C152.013 823.775 156.618 828.438 156.618 834.191C156.618 839.944 152.013 844.607 146.332 844.607C140.651 844.607 136.046 839.944 136.046 834.191Z" fill="#004931"/>
<path d="M136.046 884.487C136.046 878.734 140.651 874.071 146.332 874.071C152.013 874.071 156.618 878.734 156.618 884.487C156.618 890.24 152.013 894.904 146.332 894.904C140.651 894.904 136.046 890.24 136.046 884.487Z" fill="#FBB03B"/>
<path d="M178.878 840.501C173.381 840.501 169.425 836.614 169.425 831.37C169.425 826.057 173.519 822.239 178.855 822.239C182.466 822.239 185.594 824.056 186.698 827.092L184.536 827.874C183.685 825.827 181.477 824.447 178.878 824.447C174.761 824.447 172.001 827.437 172.001 831.393C172.001 835.533 174.991 838.293 178.878 838.293C181.27 838.293 183.455 837.074 184.49 835.257L186.698 836.062C185.318 838.822 182.351 840.501 178.878 840.501ZM193.03 840.432C189.994 840.432 188.706 838.546 188.706 835.602V828.61H191.052V834.935C191.052 837.074 191.788 838.385 193.743 838.385C195.951 838.385 196.871 836.706 196.871 834.613V828.61H199.24V840.156H197.216L196.871 838.546C196.089 839.811 194.755 840.432 193.03 840.432ZM202.367 840.156V828.633H204.368L204.713 830.289C205.357 829.116 206.737 828.449 207.979 828.449C208.462 828.449 209.129 828.541 209.474 828.656L209.152 830.772C208.784 830.634 208.393 830.565 207.979 830.565C205.886 830.565 204.713 832.474 204.713 834.613V840.156H202.367ZM211.261 840.156V828.633H213.262L213.607 830.289C214.251 829.116 215.631 828.449 216.873 828.449C217.356 828.449 218.023 828.541 218.368 828.656L218.046 830.772C217.678 830.634 217.287 830.565 216.873 830.565C214.78 830.565 213.607 832.474 213.607 834.613V840.156H211.261ZM225.241 840.432C221.837 840.432 219.33 838.155 219.33 834.337C219.33 830.841 221.492 828.334 225.149 828.334C228.622 828.334 230.853 830.611 230.853 834.038C230.853 834.337 230.83 834.682 230.784 835.05H221.699C221.906 837.258 223.171 838.5 225.287 838.5C226.736 838.5 227.84 837.925 228.576 836.775L230.577 837.373C229.726 839.282 227.702 840.432 225.241 840.432ZM221.699 833.302H228.53C228.369 831.393 227.104 830.174 225.172 830.174C223.263 830.174 221.814 831.37 221.699 833.302ZM233.206 840.156V828.61H235.23L235.575 830.22C236.38 828.932 237.737 828.334 239.416 828.334C242.406 828.334 243.74 830.151 243.74 833.187V840.156H241.394V833.831C241.394 831.784 240.727 830.404 238.703 830.404C236.472 830.404 235.575 832.06 235.575 834.153V840.156H233.206ZM251.26 840.478C248.684 840.478 247.488 838.891 247.488 836.108V830.496H245.326V828.633H247.488V824.723H249.834V828.633H253.169V830.496H249.834V836.223C249.834 837.695 250.386 838.362 251.651 838.362C252.111 838.362 252.617 838.27 253.1 838.132L253.33 840.064C252.755 840.34 251.996 840.478 251.26 840.478Z" fill="black"/>
<path d="M180.165 890.785C174.737 890.785 170.689 886.668 170.689 881.654C170.689 876.456 174.944 872.523 180.165 872.523C185.547 872.523 189.664 876.594 189.664 881.654C189.664 884.575 188.284 887.128 186.168 888.761L187.663 890.578L185.892 892.05L184.144 889.957C182.925 890.486 181.591 890.785 180.165 890.785ZM173.311 881.654C173.311 885.426 176.209 888.577 180.165 888.577C181.039 888.577 181.867 888.416 182.626 888.14L180.096 885.104L181.867 883.609L184.65 886.967C186.122 885.725 187.042 883.839 187.042 881.654C187.042 877.652 184.052 874.731 180.165 874.731C176.14 874.731 173.311 877.951 173.311 881.654ZM194.177 890.44V875.651H191.072V874.018C192.659 874.018 194.2 873.351 194.913 872.868H196.546V890.44H194.177ZM205.052 889.589C205.351 885.955 210.848 882.298 211.768 881.424C212.918 880.32 213.838 878.986 213.838 877.606C213.838 875.927 212.504 874.777 210.641 874.777C208.824 874.777 207.467 875.904 207.191 877.767L204.914 877.376C205.19 874.524 207.467 872.592 210.756 872.592C214.091 872.592 216.345 874.639 216.345 877.79C216.345 880.711 214.321 882.39 212.021 884.161C209.997 885.794 208.893 886.783 208.18 888.255H216.391V890.44H204.983L205.052 889.589ZM225.298 890.716C220.33 890.716 218.513 887.243 218.513 881.654C218.513 876.065 220.33 872.592 225.298 872.592C230.335 872.592 232.106 876.134 232.106 881.654C232.106 887.174 230.335 890.716 225.298 890.716ZM221.02 881.654C221.02 885.702 222.009 888.531 225.275 888.531H225.298C228.564 888.531 229.599 885.771 229.599 881.654C229.599 877.537 228.564 874.777 225.298 874.777H225.275C222.009 874.777 221.02 877.606 221.02 881.654ZM233.421 889.589C233.72 885.955 239.217 882.298 240.137 881.424C241.287 880.32 242.207 878.986 242.207 877.606C242.207 875.927 240.873 874.777 239.01 874.777C237.193 874.777 235.836 875.904 235.56 877.767L233.283 877.376C233.559 874.524 235.836 872.592 239.125 872.592C242.46 872.592 244.714 874.639 244.714 877.79C244.714 880.711 242.69 882.39 240.39 884.161C238.366 885.794 237.262 886.783 236.549 888.255H244.76V890.44H233.352L233.421 889.589ZM252.481 890.716C248.778 890.716 245.995 888.094 245.995 884.644C245.995 883.241 246.455 881.999 247.306 880.757L252.688 872.868H255.586L251.423 878.756C254.39 877.928 258.99 880.067 258.99 884.644C258.99 888.025 256.184 890.716 252.481 890.716ZM248.479 884.644C248.479 886.76 250.135 888.554 252.481 888.554C254.689 888.554 256.483 886.898 256.483 884.644C256.483 882.528 254.85 880.734 252.481 880.734C250.181 880.734 248.479 882.459 248.479 884.644Z" fill="black"/>
<path d="M972.105 295.717C972.105 300.806 968.03 304.932 963.005 304.932C957.98 304.932 953.905 300.806 953.905 295.717C953.905 290.628 957.98 286.502 963.005 286.502C968.03 286.502 972.105 290.628 972.105 295.717Z" fill="#004931"/>
<path d="M962.672 294.825L979.865 324.664H1083.59" stroke="#004931"/>
<path d="M972.105 295.717C972.105 300.806 968.03 304.932 963.005 304.932C957.98 304.932 953.905 300.806 953.905 295.717C953.905 290.628 957.98 286.502 963.005 286.502C968.03 286.502 972.105 290.628 972.105 295.717Z" fill="#004931"/>
<path d="M962.672 294.825L979.865 324.664H1083.59" stroke="#004931"/>
<path d="M1002.78 314.728V297.156H1008.58C1012.26 297.156 1014.81 299.433 1014.81 302.63C1014.81 305.965 1012.1 308.242 1008.58 308.242H1005.27V314.728H1002.78ZM1005.27 306.057H1008.58C1010.79 306.057 1012.28 304.723 1012.28 302.699C1012.28 300.698 1010.83 299.364 1008.53 299.364H1005.27V306.057ZM1022.06 315.004C1018.41 315.004 1015.71 312.428 1015.71 308.955C1015.71 305.597 1018.31 302.906 1022.09 302.906C1025.72 302.906 1028.41 305.482 1028.41 308.955C1028.41 312.382 1025.79 315.004 1022.06 315.004ZM1018.08 308.955C1018.08 311.117 1019.6 312.957 1022.09 312.957C1024.36 312.957 1026.04 311.324 1026.04 308.955C1026.04 306.793 1024.52 304.953 1022.06 304.953C1019.79 304.953 1018.08 306.54 1018.08 308.955ZM1030.71 314.728V296.604H1033.08V314.728H1030.71ZM1041.05 315.004C1037.83 315.004 1035.41 312.267 1035.41 308.932C1035.41 305.551 1037.94 302.906 1041.16 302.906C1043.85 302.906 1045.42 304.792 1045.42 304.792L1045.76 303.182H1047.79V314.728H1045.76L1045.42 313.049C1045.42 313.049 1043.78 315.004 1041.05 315.004ZM1037.78 308.955C1037.78 311.14 1039.25 312.934 1041.6 312.934C1043.97 312.934 1045.49 311.071 1045.49 308.932C1045.49 306.747 1043.88 304.953 1041.6 304.953C1039.32 304.953 1037.78 306.747 1037.78 308.955ZM1050.91 314.728V303.182H1052.93L1053.28 304.792C1054.08 303.504 1055.44 302.906 1057.12 302.906C1060.11 302.906 1061.44 304.723 1061.44 307.759V314.728H1059.1V308.403C1059.1 306.356 1058.43 304.976 1056.4 304.976C1054.17 304.976 1053.28 306.632 1053.28 308.725V314.728H1050.91ZM1069.19 315.004C1065.97 315.004 1063.56 312.267 1063.56 308.932C1063.56 305.551 1066.09 302.906 1069.31 302.906C1071.26 302.906 1072.89 303.987 1073.56 304.792V297.409H1075.93V314.728H1073.91L1073.56 313.049C1072.85 313.9 1071.19 315.004 1069.19 315.004ZM1065.93 308.955C1065.93 311.14 1067.4 312.934 1069.74 312.934C1072.11 312.934 1073.63 311.071 1073.63 308.932C1073.63 306.747 1072.02 304.953 1069.74 304.953C1067.47 304.953 1065.93 306.747 1065.93 308.955Z" fill="#131414"/>
<path d="M1026.86 772.916C1026.86 778.005 1022.78 782.131 1017.76 782.131C1012.73 782.131 1008.66 778.005 1008.66 772.916C1008.66 767.827 1012.73 763.701 1017.76 763.701C1022.78 763.701 1026.86 767.827 1026.86 772.916Z" fill="#004931"/>
<path d="M1016.95 772.094L1043.31 801.468H1202.38" stroke="#004931"/>
<path d="M1063.06 792.249C1059.54 792.249 1056.96 790.455 1056.29 787.672L1058.43 787.005C1059.08 788.96 1060.85 790.041 1062.99 790.041C1065.19 790.041 1066.44 789.029 1066.44 787.35C1066.44 785.855 1065.52 785.119 1063.86 784.498L1061.12 783.463C1058.43 782.451 1057.05 781.071 1057.05 778.702C1057.05 775.965 1059.42 774.033 1062.57 774.033C1065.45 774.033 1067.66 775.482 1068.41 777.851L1066.39 778.564C1065.75 777.115 1064.37 776.241 1062.69 776.241C1060.94 776.241 1059.56 777.23 1059.56 778.771C1059.56 780.059 1060.53 780.726 1062.34 781.416L1064.94 782.405C1067.49 783.371 1068.94 784.935 1068.94 787.258C1068.94 790.478 1066.76 792.249 1063.06 792.249ZM1076.9 792.203C1073.25 792.203 1070.56 789.627 1070.56 786.154C1070.56 782.796 1073.16 780.105 1076.93 780.105C1080.56 780.105 1083.25 782.681 1083.25 786.154C1083.25 789.581 1080.63 792.203 1076.9 792.203ZM1072.93 786.154C1072.93 788.316 1074.44 790.156 1076.93 790.156C1079.2 790.156 1080.88 788.523 1080.88 786.154C1080.88 783.992 1079.37 782.152 1076.9 782.152C1074.63 782.152 1072.93 783.739 1072.93 786.154ZM1089.67 792.203C1086.64 792.203 1085.35 790.317 1085.35 787.373V780.381H1087.7V786.706C1087.7 788.845 1088.43 790.156 1090.39 790.156C1092.6 790.156 1093.52 788.477 1093.52 786.384V780.381H1095.88V791.927H1093.86L1093.52 790.317C1092.73 791.582 1091.4 792.203 1089.67 792.203ZM1103.63 792.249C1101.06 792.249 1099.86 790.662 1099.86 787.879V782.267H1097.7V780.404H1099.86V776.494H1102.21V780.404H1105.54V782.267H1102.21V787.994C1102.21 789.466 1102.76 790.133 1104.03 790.133C1104.49 790.133 1104.99 790.041 1105.47 789.903L1105.7 791.835C1105.13 792.111 1104.37 792.249 1103.63 792.249ZM1107.84 791.927V774.608H1110.18V782.014C1110.99 780.726 1112.35 780.105 1114.07 780.105C1116.97 780.105 1118.37 781.853 1118.37 784.958V791.927H1116V785.602C1116 783.647 1115.41 782.175 1113.29 782.175C1111.17 782.175 1110.18 783.716 1110.18 785.924V791.927H1107.84ZM1125.92 791.927L1132.72 774.355H1134.79L1141.6 791.927H1138.98L1137.48 788.201H1130.01L1128.51 791.927H1125.92ZM1130.84 785.993H1136.68L1133.76 778.012L1130.84 785.993ZM1144.13 791.927V782.267H1141.97V780.404H1144.13V777.92C1144.13 775.252 1145.33 773.573 1147.9 773.573C1148.64 773.573 1149.4 773.711 1149.97 773.987L1149.74 775.919C1149.26 775.781 1148.76 775.689 1148.3 775.689C1147.03 775.689 1146.48 776.356 1146.48 777.828V780.404H1149.81V782.267H1146.48V791.927H1144.13ZM1151.61 791.927V780.404H1153.62L1153.96 782.06C1154.6 780.887 1155.98 780.22 1157.23 780.22C1157.71 780.22 1158.38 780.312 1158.72 780.427L1158.4 782.543C1158.03 782.405 1157.64 782.336 1157.23 782.336C1155.13 782.336 1153.96 784.245 1153.96 786.384V791.927H1151.61ZM1160.51 791.927V780.404H1162.86V791.927H1160.51ZM1159.91 776.333C1159.91 775.39 1160.67 774.631 1161.68 774.631C1162.69 774.631 1163.45 775.39 1163.45 776.333C1163.45 777.276 1162.69 778.035 1161.68 778.035C1160.67 778.035 1159.91 777.276 1159.91 776.333ZM1171.39 792.203C1167.65 792.203 1165.21 789.742 1165.21 786.154C1165.21 782.658 1167.55 780.105 1171.26 780.105C1173.58 780.105 1175.49 781.163 1176.32 783.164L1174.5 783.969C1173.83 782.75 1172.8 782.152 1171.42 782.152C1168.96 782.152 1167.58 783.854 1167.58 786.154C1167.58 788.362 1168.89 790.156 1171.39 790.156C1172.75 790.156 1173.76 789.604 1174.57 788.408L1176.36 789.213C1175.47 791.214 1173.69 792.203 1171.39 792.203ZM1183.24 792.203C1180.02 792.203 1177.61 789.466 1177.61 786.131C1177.61 782.75 1180.14 780.105 1183.36 780.105C1186.05 780.105 1187.61 781.991 1187.61 781.991L1187.96 780.381H1189.98V791.927H1187.96L1187.61 790.248C1187.61 790.248 1185.98 792.203 1183.24 792.203ZM1179.97 786.154C1179.97 788.339 1181.45 790.133 1183.79 790.133C1186.16 790.133 1187.68 788.27 1187.68 786.131C1187.68 783.946 1186.07 782.152 1183.79 782.152C1181.52 782.152 1179.97 783.946 1179.97 786.154Z" fill="#131414"/>
</svg>
