<svg width="204" height="250" viewBox="0 0 204 250" fill="none" xmlns="http://www.w3.org/2000/svg">
<g clip-path="url(#clip0_1370_1410)">
<path d="M36.3811 0H83.586V146.548C57.5327 146.548 36.3811 125.251 36.3811 99.0196V0Z" fill="white"/>
<path d="M171.021 146.548V194.077H36.037C36.037 167.845 57.1886 146.548 83.2419 146.548H171.02H171.021Z" fill="white"/>
<path d="M7.02395 223.829V243.194H29.8779V250.104H-0.329346V223.829H7.02395Z" fill="white"/>
<path d="M44.7366 235.182L54.8062 223.829H64.0073L48.4322 241.069V250.106H41.0789V241.069L25.4658 223.829H34.705L44.7366 235.182Z" fill="white"/>
<path d="M88.6329 223.829C97.7215 223.829 102.888 228.728 102.888 236.968V237.006C102.888 245.208 97.7215 250.106 88.6329 250.106H66.5333V223.831H88.6329V223.829ZM73.8883 243.46H88.6329C93.4981 243.46 95.7231 241.069 95.7231 237.006V236.968C95.7231 232.867 93.4981 230.475 88.6329 230.475H73.8883V243.46Z" fill="white"/>
<path d="M107.302 250.105V223.829H114.655V250.105H107.302Z" fill="white"/>
<path d="M158.703 250.105H150.784L147.993 245.358H129.024L126.195 250.105H118.276L134.832 223.829H142.149L158.705 250.105H158.703ZM138.49 230.17L132.681 239.36H144.296L138.488 230.17H138.49Z" fill="white"/>
<path d="M182.725 237.727L196.264 223.829H203.089V250.105H195.848V234.12L184.422 245.852H181.028L169.602 234.12V250.105H162.361V223.829H169.186L182.725 237.727Z" fill="white"/>
</g>
<defs>
<clipPath id="clip0_1370_1410">
<rect width="203.311" height="249.593" fill="white"/>
</clipPath>
</defs>
</svg>
