<svg width="210" height="140" viewBox="0 0 210 140" fill="none" xmlns="http://www.w3.org/2000/svg">
<g clip-path="url(#clip0_1371_3138)">
<path d="M0 17.5C0 7.83502 7.83502 0 17.5 0H192.5C202.165 0 210 7.83502 210 17.5V122.5C210 132.165 202.165 140 192.5 140H17.5C7.83501 140 0 132.165 0 122.5V17.5Z" fill="#D4DEF7"/>
<path d="M154.974 43.1846L150.911 52.1419H159.06L154.974 43.1846ZM108.087 48.7353C108.853 48.3717 109.304 47.581 109.304 46.5991C109.304 45.6369 108.83 44.94 108.064 44.6126C107.367 44.2496 106.294 44.2076 105.265 44.2076H97.9951V49.1985H105.167C106.316 49.1987 107.275 49.1834 108.087 48.7353ZM14.9391 43.1846L10.9219 52.1419H18.9806L14.9391 43.1846ZM201.978 100.568H190.577V95.7487H201.932C203.057 95.7487 203.846 95.6144 204.32 95.1919C204.769 94.8153 205.023 94.2831 205.018 93.7265C205.018 93.0716 204.732 92.5516 204.297 92.2405C203.869 91.8974 203.245 91.7413 202.217 91.7413C196.674 91.57 189.758 91.8969 189.758 84.785C189.758 81.5256 192.034 78.0944 198.229 78.0944H209.988V73.6228H199.063C195.765 73.6228 193.37 74.3411 191.674 75.4585V73.6228H175.514C172.93 73.6228 169.897 74.2054 168.462 75.4585V73.6228H139.603V75.4585C137.306 73.951 133.43 73.6228 131.643 73.6228H112.607V75.4585C110.791 73.8577 106.749 73.6228 104.287 73.6228H82.9833L78.109 78.4224L73.5431 73.6228H41.7193V104.985H72.9427L77.9653 100.108L82.6971 104.985L101.943 105V97.6225H103.836C106.389 97.6598 109.401 97.5655 112.059 96.5204V104.984H127.934V96.8093H128.699C129.676 96.8093 129.773 96.8466 129.773 97.735V104.982H177.999C181.061 104.982 184.261 104.27 186.033 102.974V104.982H201.33C204.513 104.982 207.622 104.576 209.987 103.537V97.6946C208.554 99.6022 205.758 100.569 201.977 100.569L201.978 100.568ZM104.089 93.1629H96.7225V100.701H85.2481L77.9787 93.2615L70.4245 100.701H47.0402V78.2269H70.7842L78.0471 85.5939L85.5561 78.2269H104.42C109.105 78.2269 114.369 79.4072 114.369 85.631C114.369 91.8742 109.249 93.1629 104.089 93.1629ZM139.51 92.1439C140.343 93.2408 140.464 94.2649 140.488 96.2461V100.701H134.56V97.8899C134.56 96.5378 134.704 94.5356 133.606 93.4906C132.745 92.6858 131.429 92.4936 129.275 92.4936H122.966V100.701H117.034V78.2271H130.663C133.653 78.2271 135.829 78.348 137.767 79.2875C139.63 80.3116 140.802 81.7146 140.802 84.2784C140.802 87.8652 138.172 89.6951 136.618 90.2575C137.932 90.6985 139.005 91.4892 139.51 92.1439ZM163.896 82.8749H150.071V86.9605H163.558V91.5462H150.071V96.0178L163.896 96.0378V100.701H144.192V78.2269H163.896V82.8749ZM179.066 100.701H167.568V95.8816H179.02C180.14 95.8816 180.934 95.7469 181.431 95.3248C181.837 94.9774 182.129 94.472 182.129 93.86C182.129 93.2045 181.813 92.6846 181.408 92.3727C180.957 92.0301 180.333 91.875 179.306 91.875C173.785 91.7027 166.871 92.0296 166.871 84.9182C166.871 81.6583 169.123 78.2271 175.312 78.2271H187.147V83.0099H176.317C175.244 83.0099 174.546 83.0472 173.952 83.4169C173.305 83.7809 173.065 84.3205 173.065 85.033C173.065 85.8807 173.615 86.4579 174.357 86.7072C174.98 86.9043 175.648 86.9618 176.654 86.9618L179.833 87.0408C183.036 87.1106 185.237 87.616 186.574 88.8477C187.723 89.9295 188.34 91.2962 188.34 93.609C188.34 98.4439 185.019 100.701 179.066 100.701ZM133.279 83.2374C132.566 82.8519 131.513 82.8314 130.463 82.8314H123.193V87.8788H130.365C131.514 87.8788 132.49 87.8417 133.279 87.4156C134.044 86.9948 134.502 86.2197 134.502 85.2585C134.502 84.2973 134.044 83.6014 133.279 83.2374ZM199.239 82.8309C198.166 82.8309 197.451 82.868 196.85 83.2369C196.227 83.6014 195.988 84.1411 195.988 84.8541C195.988 85.7013 196.514 86.2785 197.279 86.5283C197.902 86.7253 198.57 86.7829 199.554 86.7829L202.754 86.8603C205.982 86.9332 208.138 87.4386 209.452 88.6703C209.692 88.841 209.835 89.0333 210 89.226V82.8314H199.24L199.239 82.8309ZM104.293 82.8309H96.5956V88.555H104.225C106.493 88.555 107.903 87.5309 107.904 85.5867C107.903 83.6214 106.424 82.8309 104.293 82.8309ZM52.9201 82.8309V86.9171H65.8801V91.5027H52.9201V95.9739H67.4343L74.1779 89.3807L67.7208 82.8309H52.9201ZM90.8205 98.5474V80.5294L81.7569 89.3935L90.8205 98.5474ZM53.4155 62.4639V66.3363H102.737L102.714 58.1441H103.668C104.337 58.1653 104.531 58.2213 104.531 59.2252V66.3366H130.041V64.4292C132.099 65.4324 135.298 66.3366 139.51 66.3366H150.241L152.538 61.346H157.63L159.876 66.3366H180.557V61.596L183.687 66.3363H200.26V35H183.86V38.7009L181.563 35H164.734V38.7009L162.625 35H139.892C136.087 35 132.743 35.4832 130.041 36.8299V35H114.353V36.8299C112.633 35.4417 110.29 35 107.686 35H50.3736L46.5284 43.0941L42.5792 35H24.5277V38.7009L22.5443 35H7.14931L0.000269237 49.8997V61.8179L10.5716 39.3487H19.343L29.3829 60.6222V39.3487H39.0186L46.7443 54.5912L53.8419 39.3487H63.671V61.8179H57.6199L57.5978 44.2204L49.0371 61.8179H43.8538L35.2713 44.2048V61.8179H23.2634L20.9951 56.8061H8.70334L6.4116 61.8179H0V66.3381H10.0872L12.3615 61.3472H17.4538L19.7221 66.3381H39.5684V62.5222L41.3397 66.3539H51.6423L53.4139 62.4646L53.4155 62.4639ZM131.136 41.9677C133.044 40.1744 136.033 39.3474 140.101 39.3474H145.816V44.1619H140.221C138.068 44.1619 136.85 44.4533 135.679 45.4932C134.672 46.4391 133.981 48.2276 133.981 50.5825C133.981 52.9899 134.508 54.7254 135.604 55.8592C136.513 56.7483 138.166 57.018 139.719 57.018H142.371L150.691 39.3482H159.536L169.532 60.6005V39.3484H178.52L188.897 54.9969V39.3484H194.945V61.8168H186.579L175.389 44.9528V61.8168H163.366L161.069 56.805H148.805L146.576 61.8168H139.668C136.798 61.8168 133.165 61.2396 131.108 59.3315C129.033 57.4239 127.954 54.8397 127.954 50.754C127.953 47.4213 128.597 44.3751 131.136 41.9677ZM118.993 39.3477H125.017V61.8168H118.993V39.3477ZM91.8353 39.3477H105.413C108.43 39.3477 110.654 39.4205 112.562 40.4239C114.43 41.4275 115.55 42.8929 115.55 45.3987C115.55 48.9814 112.921 50.832 111.39 51.388C112.682 51.8354 113.786 52.6256 114.311 53.28C115.145 54.3977 115.288 55.3959 115.288 57.4025V61.8166H109.334L109.312 58.9831C109.312 57.6308 109.454 55.6864 108.38 54.606C107.518 53.8161 106.203 53.644 104.077 53.644H97.7396V61.8168H91.8361L91.8353 39.3477ZM68.0366 39.3477H87.7579V44.0266H73.9407V48.0767H87.4262V52.6826H73.9407V57.1698H87.7579V61.8166H68.0366V39.3477Z" fill="#2557D6"/>
</g>
<defs>
<clipPath id="clip0_1371_3138">
<rect width="210" height="140" fill="white"/>
</clipPath>
</defs>
</svg>
