<svg width="210" height="140" viewBox="0 0 210 140" fill="none" xmlns="http://www.w3.org/2000/svg">
<g clip-path="url(#clip0_1371_3135)">
<path d="M0 17.5C0 7.83502 7.83502 0 17.5 0H192.5C202.165 0 210 7.83502 210 17.5V122.5C210 132.165 202.165 140 192.5 140H17.5C7.83501 140 0 132.165 0 122.5V17.5Z" fill="#E6E6E6"/>
<path d="M162.796 109.937C170.861 109.937 174.657 106.86 177.973 97.5312L192.5 56.7868H184.089L174.348 88.3093H174.177L164.436 56.8295H155.787L169.801 95.61L169.05 97.9688C168.52 101.345 165.489 103.754 162.077 103.505C161.426 103.505 160.163 103.437 159.65 103.37V109.774C160.693 109.916 161.746 109.984 162.796 109.98V109.937ZM134.767 89.5332C130.355 89.5332 127.555 87.3985 127.555 84.168C127.555 80.82 130.256 78.8703 135.418 78.5608L144.611 77.9809V80.9908C144.409 85.9505 140.221 89.8107 135.261 89.6079C135.094 89.6008 134.931 89.5866 134.767 89.5723V89.5332ZM132.547 95.8555C137.553 95.9907 142.235 93.3828 144.75 89.0529H144.921V95.457H152.577V68.9333C152.577 61.2413 146.426 56.2852 136.955 56.2852C128.171 56.2852 121.674 61.3089 121.436 68.2146H128.889C129.779 64.703 133.116 62.3869 136.717 62.7782C141.776 62.7782 144.611 65.1371 144.611 69.4777V72.4164L134.294 73.0319C124.688 73.6119 119.493 77.5433 119.493 84.3814C119.486 91.3157 124.851 95.8946 132.543 95.8946L132.547 95.8555ZM88.177 49.1304H97.712C104.892 49.1304 108.994 52.9586 108.994 59.6936C108.994 66.4286 104.892 70.2888 97.68 70.2888H88.177V49.1304ZM79.905 42.157V95.4463H88.177V77.28H99.6297C108.958 77.7817 116.924 70.6268 117.426 61.2982C117.454 60.7681 117.458 60.2415 117.437 59.7114C117.878 50.4859 110.759 42.6515 101.533 42.2068C100.989 42.1819 100.448 42.1855 99.9036 42.2104L79.905 42.157ZM52.4492 52.1012C47.6959 51.8272 43.6293 54.8016 41.3736 54.8016C39.1179 54.8016 35.6312 52.2399 31.8706 52.3111C26.8896 52.4392 22.3498 55.1965 19.9412 59.5584C14.8143 68.3783 18.607 81.4356 23.563 88.6117C25.9895 92.1696 28.8998 96.0654 32.7245 95.9266C36.3464 95.7914 37.7837 93.5678 42.1599 93.5678C46.536 93.5678 47.8346 95.9266 51.6629 95.8555C55.6263 95.7879 58.1239 92.2976 60.5575 88.7398C62.2724 86.2208 63.6065 83.4635 64.5209 80.5568C59.8495 78.5146 56.8217 73.9143 56.7968 68.8159C56.868 64.3188 59.2233 60.1703 63.0515 57.8115C60.6108 54.3462 56.6936 52.2186 52.4563 52.0691L52.4492 52.1012ZM49.4819 47.3941C47.4006 50.0163 44.2163 51.5212 40.8684 51.4608C40.6549 48.1947 41.765 44.9819 43.9459 42.5413C46.1162 40.0223 49.1759 38.4426 52.4847 38.1331C52.7195 41.4917 51.6415 44.8076 49.4748 47.3835" fill="black"/>
</g>
<defs>
<clipPath id="clip0_1371_3135">
<rect width="210" height="140" fill="white"/>
</clipPath>
</defs>
</svg>
