<svg width="211" height="140" viewBox="0 0 211 140" fill="none" xmlns="http://www.w3.org/2000/svg">
<g clip-path="url(#clip0_1371_3017)">
<path d="M0 17.5C0 7.83502 7.87233 0 17.5833 0H193.417C203.128 0 211 7.83502 211 17.5V122.5C211 132.165 203.128 140 193.417 140H17.5833C7.87232 140 0 132.165 0 122.5V17.5Z" fill="#E4E5E7"/>
<path d="M100.74 74.7037V94.9327H94.2471V44.976H111.468C113.523 44.9335 115.567 45.2939 117.481 46.0362C119.395 46.7784 121.141 47.888 122.619 49.3008C124.111 50.6278 125.299 52.2553 126.103 54.0738C126.906 55.8923 127.306 57.8597 127.277 59.8438C127.319 61.8385 126.925 63.8188 126.121 65.6489C125.317 67.479 124.122 69.1156 122.619 70.4466C119.607 73.2846 115.89 74.7023 111.468 74.6997H100.74V74.7037ZM100.74 51.1264V68.5652H111.629C112.823 68.6002 114.011 68.3885 115.117 67.9437C116.223 67.499 117.223 66.8309 118.053 65.9823C118.879 65.1888 119.535 64.2397 119.984 63.1912C120.432 62.1427 120.663 61.016 120.663 59.8777C120.663 58.7394 120.432 57.6127 119.984 56.5642C119.535 55.5156 118.879 54.5666 118.053 53.7731C117.234 52.9066 116.237 52.2221 115.129 51.7652C114.022 51.3082 112.829 51.0891 111.629 51.1224H100.74V51.1264Z" fill="#5F6368"/>
<path d="M142.239 59.6365C147.038 59.6365 150.826 60.9041 153.604 63.4392C156.381 65.9743 157.768 69.4501 157.765 73.8666V94.9326H151.555V90.1893H151.272C148.584 94.0956 145.008 96.0487 140.545 96.0487C136.735 96.0487 133.548 94.9326 130.983 92.7005C129.752 91.676 128.768 90.3929 128.102 88.9448C127.437 87.4967 127.106 85.9201 127.136 84.3299C127.136 80.7929 128.488 77.9801 131.193 75.8915C133.897 73.8028 137.508 72.7558 142.025 72.7505C145.88 72.7505 149.056 73.448 151.551 74.8431V73.3763C151.558 72.2922 151.321 71.22 150.857 70.2376C150.394 69.2551 149.714 68.387 148.869 67.6962C147.152 66.1651 144.914 65.3297 142.602 65.3564C138.975 65.3564 136.105 66.8685 133.991 69.8925L128.273 66.333C131.419 61.8687 136.074 59.6365 142.239 59.6365ZM133.838 84.4694C133.834 85.2861 134.027 86.0921 134.402 86.8201C134.776 87.5481 135.321 88.1771 135.992 88.6547C137.428 89.7711 139.21 90.3626 141.037 90.3288C143.777 90.3243 146.403 89.2464 148.341 87.3313C150.491 85.3303 151.567 82.9826 151.567 80.288C149.542 78.6936 146.719 77.8964 143.098 77.8964C140.46 77.8964 138.261 78.5249 136.5 79.7818C134.721 81.0573 133.838 82.6079 133.838 84.4694Z" fill="#5F6368"/>
<path d="M193.417 60.7527L171.736 110H165.033L173.079 92.7683L158.822 60.7527H165.88L176.184 85.3065H176.325L186.347 60.7527H193.417Z" fill="#5F6368"/>
<path d="M74.5026 70.343C74.5051 68.3873 74.3377 66.4349 74.0025 64.5075H46.6191V75.5607H62.3031C61.9821 77.326 61.3029 79.0089 60.3062 80.5078C59.3095 82.0067 58.016 83.2906 56.5038 84.2821V91.4569H65.8641C71.3448 86.4624 74.5026 79.0764 74.5026 70.343Z" fill="#4285F4"/>
<path d="M46.6195 98.3888C54.4554 98.3888 61.0532 95.8457 65.8645 91.4611L56.5041 84.2863C53.8988 86.0321 50.5435 87.0286 46.6195 87.0286C39.0457 87.0286 32.6172 81.9824 30.3185 75.1822H20.6758V82.5763C23.0926 87.3295 26.7984 91.3253 31.3797 94.1175C35.9609 96.9097 41.2372 98.3885 46.6195 98.3888Z" fill="#34A853"/>
<path d="M30.3176 75.1821C29.1023 71.6188 29.1023 67.76 30.3176 64.1967V56.8026H20.6749C18.6418 60.8012 17.583 65.2143 17.583 69.6894C17.583 74.1645 18.6418 78.5776 20.6749 82.5762L30.3176 75.1821Z" fill="#FBBC04"/>
<path d="M46.6194 52.3501C50.7604 52.2833 54.7616 53.8297 57.7583 56.655L66.0459 48.4638C60.7907 43.5852 53.8287 40.9068 46.6194 40.99C41.2372 40.9903 35.9609 42.469 31.3797 45.2613C26.7984 48.0535 23.0926 52.0493 20.6758 56.8025L30.3185 64.1966C32.6172 57.3964 39.0457 52.3501 46.6194 52.3501Z" fill="#EA4335"/>
</g>
<defs>
<clipPath id="clip0_1371_3017">
<rect width="211" height="140" fill="white"/>
</clipPath>
</defs>
</svg>
