<svg width="211" height="140" viewBox="0 0 211 140" fill="none" xmlns="http://www.w3.org/2000/svg">
<g clip-path="url(#clip0_1371_2959)">
<path d="M0 17.5C0 7.83502 7.87233 0 17.5833 0H193.417C203.128 0 211 7.83502 211 17.5V122.5C211 132.165 203.128 140 193.417 140H17.5833C7.87232 140 0 132.165 0 122.5V17.5Z" fill="#FDEACE"/>
<path d="M127.52 28.5572L82.1094 28.7128L83.4789 111.443L128.89 111.288L127.52 28.5572Z" fill="#FF5F00"/>
<path d="M85.1002 70.2447C84.8206 53.418 92.3962 38.4668 104.261 28.7687C95.3064 21.7756 84.0799 17.5704 71.9097 17.6119C43.0781 17.7103 20.1435 41.3473 20.6274 70.4647C21.1113 99.5822 44.8289 123.06 73.6606 122.961C85.8308 122.92 96.9162 118.639 105.637 111.585C93.454 102.116 85.3799 87.0714 85.1002 70.2447Z" fill="#EB001B"/>
<path d="M190.372 69.5356C190.856 98.653 167.921 122.29 139.09 122.388C126.92 122.43 115.693 118.225 106.738 111.232C118.748 101.533 126.179 86.5823 125.899 69.7556C125.62 52.9289 117.548 38.0311 105.362 28.4151C114.083 21.3617 125.169 17.0803 137.339 17.0388C166.17 16.9404 189.891 40.5645 190.372 69.5356Z" fill="#F79E1B"/>
</g>
<defs>
<clipPath id="clip0_1371_2959">
<rect width="211" height="140" fill="white"/>
</clipPath>
</defs>
</svg>
