<svg width="210" height="140" viewBox="0 0 210 140" fill="none" xmlns="http://www.w3.org/2000/svg">
<g clip-path="url(#clip0_1371_2916)">
<path d="M0 17.5C0 7.83502 7.83502 0 17.5 0H192.5C202.165 0 210 7.83502 210 17.5V122.5C210 132.165 202.165 140 192.5 140H17.5C7.83501 140 0 132.165 0 122.5V17.5Z" fill="#D8DDF3"/>
<path d="M141.117 43.8904C141.117 44.4519 141.117 45.0135 140.556 45.575C136.064 68.0348 121.465 75.3343 102.374 75.3343H92.8286C90.5826 75.3343 88.3367 77.0188 88.3367 79.2648L83.2831 110.709L82.1602 119.693C82.1602 121.377 83.2831 122.5 84.4061 122.5H101.813C104.059 122.5 105.743 120.816 105.743 119.131V118.008L109.112 97.7942V96.6712C109.674 94.4252 111.358 93.3022 113.043 93.3022H115.85C132.695 93.3022 145.609 86.5643 148.978 66.9118C150.663 58.4894 149.54 51.7514 145.609 47.2594C144.486 46.1364 142.802 45.0134 141.117 43.8904Z" fill="#2199D6"/>
<path d="M136.626 42.2059C136.064 42.2059 135.503 41.6444 134.38 41.6444C133.818 41.6444 132.695 41.0829 132.134 41.0829C129.326 40.5214 126.519 40.5214 123.711 40.5214H97.8824C97.3209 40.5214 96.7593 40.5214 96.1978 41.0829C95.0748 41.6444 93.9519 42.7674 93.9519 43.8904L88.3369 78.7033V79.8262C88.8984 77.5803 90.5828 75.8958 92.8288 75.8958H102.374C121.465 75.8958 136.064 68.0348 140.556 46.1364C140.556 45.5749 140.556 45.0134 141.118 44.4519C139.995 43.8904 138.872 43.3289 137.749 42.7674C137.187 42.2059 136.626 42.2059 136.626 42.2059Z" fill="#252C5E"/>
<path d="M93.9516 43.8904C93.9516 42.7674 95.0745 41.6444 96.1975 41.0829C96.759 41.0829 97.3205 40.5214 97.882 40.5214H123.711C126.518 40.5214 129.887 40.5214 132.133 41.0829C132.695 41.0829 133.818 41.0829 134.379 41.6444C134.941 41.6444 135.502 42.2059 136.625 42.2059C137.187 42.2059 137.187 42.2059 137.748 42.7674C138.871 43.3289 139.994 43.8904 141.117 44.4519C142.24 36.0294 141.117 30.4144 136.625 25.361C131.572 19.746 122.588 17.5 111.358 17.5H78.2296C75.9836 17.5 73.7376 19.1845 73.7376 21.4305L60.2617 107.901C60.2617 109.586 61.3847 111.27 63.0692 111.27H83.2831L88.3366 78.7032L93.9516 43.8904Z" fill="#263577"/>
</g>
<defs>
<clipPath id="clip0_1371_2916">
<rect width="210" height="140" fill="white"/>
</clipPath>
</defs>
</svg>
