<svg width="210" height="140" viewBox="0 0 210 140" fill="none" xmlns="http://www.w3.org/2000/svg">
<g clip-path="url(#clip0_1371_2922)">
<path d="M0 17.5C0 7.83502 7.83502 0 17.5 0H192.5C202.165 0 210 7.83502 210 17.5V122.5C210 132.165 202.165 140 192.5 140H17.5C7.83501 140 0 132.165 0 122.5V17.5Z" fill="#CCDEFF"/>
<path d="M47.1223 50.3888C44.9289 48.8809 42.0666 48.1251 38.5355 48.1251H24.8649C23.7824 48.1251 23.1843 48.6664 23.0707 49.7482L17.5174 84.6075C17.4597 84.9499 17.5454 85.263 17.7736 85.5476C18.0006 85.8328 18.286 85.9746 18.6279 85.9746H25.1213C26.2602 85.9746 26.8862 85.4346 27.0011 84.3515L28.5388 74.9535C28.595 74.4981 28.7953 74.1277 29.1372 73.8426C29.4787 73.5579 29.906 73.3717 30.4187 73.2866C30.9313 73.2019 31.4147 73.1591 31.8712 73.1591C32.3264 73.1591 32.8673 73.1881 33.4948 73.2448C34.1208 73.3014 34.5199 73.3294 34.6909 73.3294C39.5892 73.3294 43.434 71.9492 46.2255 69.1856C49.0157 66.4236 50.4124 62.5935 50.4124 57.6936C50.4124 54.333 49.3148 51.8983 47.1223 50.388V50.3888ZM40.0739 60.856C39.7882 62.8499 39.0486 64.1594 37.8525 64.7861C36.6562 65.4137 34.9474 65.726 32.7262 65.726L29.9065 65.8112L31.3593 56.6688C31.4727 56.0428 31.8428 55.7294 32.4698 55.7294H34.0937C36.371 55.7294 38.0238 56.0577 39.0492 56.7117C40.0739 57.3672 40.4158 58.7489 40.0739 60.856Z" fill="#003087"/>
<path d="M191.388 48.125H185.066C184.437 48.125 184.068 48.4384 183.955 49.0654L178.401 84.609L178.315 84.7798C178.315 85.066 178.429 85.3353 178.658 85.5917C178.884 85.8477 179.17 85.9759 179.512 85.9759H185.152C186.232 85.9759 186.83 85.4358 186.946 84.3528L192.499 49.4073V49.3224C192.499 48.5246 192.128 48.126 191.388 48.126V48.125Z" fill="#009CDE"/>
<path d="M115.005 61.8822C115.005 61.598 114.891 61.3269 114.664 61.0713C114.436 60.8151 114.179 60.6861 113.895 60.6861H107.316C106.689 60.6861 106.176 60.9723 105.778 61.5403L96.7215 74.8695L92.9621 62.0535C92.6759 61.1428 92.0501 60.6861 91.0825 60.6861H84.6734C84.388 60.6861 84.1318 60.8146 83.9053 61.0713C83.6768 61.3269 83.5635 61.5986 83.5635 61.8822C83.5635 61.9968 84.119 63.6766 85.2294 66.9233C86.3399 70.171 87.536 73.6742 88.8178 77.4338C90.0995 81.1927 90.7684 83.1874 90.8255 83.4133C86.1544 89.7939 83.8199 93.2114 83.8199 93.6664C83.8199 94.4075 84.1895 94.7773 84.9307 94.7773H91.5095C92.1358 94.7773 92.6482 94.4932 93.0478 93.9233L114.836 62.48C114.949 62.3671 115.005 62.1687 115.005 61.8819V61.8822Z" fill="#003087"/>
<path d="M176.267 60.6864H169.773C168.975 60.6864 168.492 61.6265 168.321 63.5066C166.838 61.2288 164.135 60.0883 160.203 60.0883C156.103 60.0883 152.613 61.6265 149.737 64.7025C146.861 67.7784 145.423 71.3965 145.423 75.5541C145.423 78.9155 146.405 81.5924 148.37 83.5853C150.335 85.5803 152.969 86.5758 156.274 86.5758C157.926 86.5758 159.606 86.2335 161.315 85.5505C163.023 84.8671 164.361 83.9561 165.331 82.8165C165.331 82.8736 165.273 83.1291 165.16 83.5845C165.045 84.041 164.989 84.3839 164.989 84.6098C164.989 85.5223 165.358 85.9767 166.1 85.9767H171.996C173.077 85.9767 173.704 85.4367 173.874 84.3536L177.378 62.0533C177.434 61.7112 177.349 61.3985 177.121 61.1134C176.892 60.8292 176.608 60.6864 176.267 60.6864ZM165.117 77.5191C163.664 78.9432 161.912 79.6549 159.862 79.6549C158.21 79.6549 156.872 79.1999 155.846 78.288C154.821 77.3786 154.308 76.1253 154.308 74.5286C154.308 72.4226 155.02 70.641 156.445 69.1887C157.867 67.7361 159.634 67.0101 161.742 67.0101C163.335 67.0101 164.66 67.4799 165.715 68.4193C166.767 69.3595 167.296 70.6553 167.296 72.3077C167.295 74.358 166.569 76.0958 165.117 77.5191Z" fill="#009CDE"/>
<path d="M79.205 60.6864H72.7114C71.9128 60.6864 71.4296 61.6265 71.2586 63.5066C69.7206 61.2288 67.0148 60.0883 63.1416 60.0883C59.0404 60.0883 55.551 61.6265 52.6749 64.7025C49.798 67.7784 48.3604 71.3965 48.3604 75.5541C48.3604 78.9155 49.3431 81.5924 51.3083 83.5853C53.2735 85.5803 55.9073 86.5758 59.2114 86.5758C60.8055 86.5758 62.4584 86.2335 64.1669 85.5505C65.8756 84.8671 67.2428 83.9561 68.2681 82.8165C68.0396 83.4994 67.9262 84.0977 67.9262 84.6098C67.9262 85.5223 68.2963 85.9767 69.0369 85.9767H74.9323C76.0137 85.9767 76.641 85.4367 76.8121 84.3536L80.315 62.0533C80.3711 61.7112 80.286 61.3985 80.0588 61.1134C79.8308 60.8292 79.5464 60.6864 79.205 60.6864ZM68.055 77.5614C66.6021 78.9586 64.8213 79.6549 62.7151 79.6549C61.0622 79.6549 59.7379 79.1999 58.7418 78.288C57.7445 77.3786 57.2465 76.1253 57.2465 74.5286C57.2465 72.4226 57.9581 70.641 59.3827 69.1887C60.8058 67.7361 62.5717 67.0098 64.68 67.0098C66.2741 67.0098 67.5985 67.4799 68.6533 68.4193C69.7063 69.3595 70.2338 70.6553 70.2338 72.3077C70.2335 74.4152 69.5075 76.1673 68.055 77.5614Z" fill="#003087"/>
<path d="M144.184 50.3887C141.991 48.8808 139.13 48.125 135.598 48.125H122.012C120.873 48.125 120.246 48.6664 120.133 49.7481L114.579 84.6074C114.521 84.9498 114.607 85.2629 114.835 85.5476C115.061 85.8328 115.348 85.9746 115.689 85.9746H122.695C123.379 85.9746 123.834 85.6048 124.063 84.8641L125.601 74.9535C125.657 74.498 125.857 74.1277 126.199 73.8425C126.541 73.5578 126.967 73.3716 127.481 73.2865C127.993 73.2019 128.476 73.159 128.933 73.159C129.388 73.159 129.929 73.188 130.556 73.2447C131.182 73.3014 131.582 73.3293 131.752 73.3293C136.651 73.3293 140.495 71.9491 143.287 69.1855C146.078 66.4235 147.474 62.5934 147.474 57.6936C147.474 54.333 146.377 51.8979 144.184 50.3879V50.3887ZM135.427 64.444C134.174 65.2982 132.294 65.7252 129.788 65.7252L127.053 65.8109L128.506 56.6682C128.619 56.0425 128.989 55.7286 129.616 55.7286H131.154C132.407 55.7286 133.404 55.7858 134.145 55.8994C134.884 56.0138 135.598 56.3692 136.281 56.967C136.965 57.5653 137.306 58.4345 137.306 59.5731C137.306 61.9664 136.679 63.5889 135.427 64.444Z" fill="#009CDE"/>
</g>
<defs>
<clipPath id="clip0_1371_2922">
<rect width="210" height="140" fill="white"/>
</clipPath>
</defs>
</svg>
