<svg width="210" height="140" viewBox="0 0 210 140" fill="none" xmlns="http://www.w3.org/2000/svg">
<g clip-path="url(#clip0_1371_2824)">
<path d="M0 17.5C0 7.83502 7.83502 0 17.5 0H192.5C202.165 0 210 7.83502 210 17.5V122.5C210 132.165 202.165 140 192.5 140H17.5C7.83501 140 0 132.165 0 122.5V17.5Z" fill="#D8E3F3"/>
<path d="M180.731 43.9032H169.729C166.403 43.9032 163.845 44.9266 162.31 48.2526L141.33 96.0962H156.169C156.169 96.0962 158.728 89.7 159.239 88.1649C160.775 88.1649 175.358 88.1649 177.405 88.1649C177.916 89.9558 179.196 95.8403 179.196 95.8403H192.5L180.731 43.9032ZM163.333 77.4193C164.612 74.3491 168.962 62.836 168.962 62.836C168.962 63.0918 170.241 59.7658 170.753 57.9748L171.776 62.5801C171.776 62.5801 174.59 75.1167 175.102 77.6751H163.333V77.4193Z" fill="#3362AB"/>
<path d="M142.354 78.9545C142.354 89.7002 132.631 96.8639 117.536 96.8639C111.14 96.8639 105 95.5847 101.674 94.0496L103.721 82.2806L105.512 83.0481C110.117 85.0949 113.187 85.8624 118.816 85.8624C122.909 85.8624 127.259 84.3274 127.259 80.7455C127.259 78.4429 125.468 76.9078 119.839 74.3493C114.466 71.7908 107.302 67.6972 107.302 60.2776C107.302 50.0437 117.281 43.1358 131.352 43.1358C136.725 43.1358 141.33 44.1592 144.145 45.4385L142.098 56.6958L141.074 55.6724C138.516 54.649 135.19 53.6256 130.329 53.6256C124.956 53.8814 122.398 56.1841 122.398 58.2309C122.398 60.5335 125.468 62.3244 130.329 64.6271C138.516 68.4648 142.354 72.8142 142.354 78.9545Z" fill="#3362AB"/>
<path d="M17.5 44.4152L17.7558 43.3918H39.7588C42.8289 43.3918 45.1316 44.4152 45.8991 47.7413L50.7602 70.7676C45.8991 58.4869 34.6418 48.5088 17.5 44.4152Z" fill="#F9B50B"/>
<path d="M81.7175 43.9034L59.4587 95.8405H44.3637L31.5713 52.3464C40.7818 58.2309 48.4573 67.4414 51.2716 73.8376L52.8067 79.2104L66.6225 43.6475H81.7175V43.9034Z" fill="#3362AB"/>
<path d="M87.6021 43.6475H101.674L92.7191 95.8405H78.6475L87.6021 43.6475Z" fill="#3362AB"/>
</g>
<defs>
<clipPath id="clip0_1371_2824">
<rect width="210" height="140" fill="white"/>
</clipPath>
</defs>
</svg>
